<svg width="116" height="117" viewBox="0 0 116 117" fill="none" xmlns="http://www.w3.org/2000/svg">
<path d="M29.5605 27.272H38.5554V30.8945H29.5605V27.272Z" fill="#424242"/>
<path d="M103.319 72.5536C103.319 73.034 103.129 73.4947 102.792 73.8344C102.454 74.174 101.997 74.3649 101.52 74.3649H92.5249C92.0478 74.3649 91.5902 74.174 91.2528 73.8344C90.9154 73.4947 90.7259 73.034 90.7259 72.5536V67.1198H77.5215L69.2823 75.4154L78.493 84.6891C79.8456 86.0509 80.6055 87.898 80.6055 89.824C80.6055 91.75 79.8456 93.5971 78.493 94.9589C77.1404 96.3208 75.3058 97.0859 73.3929 97.0859C71.48 97.0859 69.6455 96.3208 68.2928 94.9589L57.8229 84.3812L54.3149 87.9312V89.7425C54.3123 90.0296 54.2425 90.3121 54.1112 90.567C53.98 90.8219 53.7909 91.042 53.5593 91.2096L44.6545 97.6034C44.3519 97.8269 43.9864 97.9474 43.6111 97.9475C43.1332 97.9489 42.6741 97.7601 42.3338 97.4223L37.2428 92.2964C36.9427 91.9915 36.7599 91.5893 36.7269 91.1614C36.694 90.7334 36.813 90.3076 37.0629 89.9599L43.4132 80.9941C43.5797 80.761 43.7983 80.5706 44.0515 80.4384C44.3047 80.3063 44.5852 80.236 44.8704 80.2334H46.6693L50.1413 76.7557C49.1375 75.978 47.8997 75.569 46.6333 75.5965C44.6456 75.5989 42.6857 75.1256 40.9154 74.2155C39.145 73.3053 37.6149 71.9845 36.4512 70.362C35.7439 69.372 35.1917 68.2786 34.8142 67.1198H25.9633V72.5536C25.9633 73.034 25.7737 73.4947 25.4364 73.8344C25.099 74.174 24.6414 74.3649 24.1643 74.3649H15.1695C14.6924 74.3649 14.2348 74.174 13.8974 73.8344C13.5601 73.4947 13.3705 73.034 13.3705 72.5536V67.1198H7.97363V105.156H108.716V67.1198H103.319V72.5536Z" fill="#424242"/>
<path d="M78.1328 27.272H87.1276V30.8945H78.1328V27.272Z" fill="#424242"/>
<path d="M16.9678 61.686H22.3647V70.7423H16.9678V61.686Z" fill="#424242"/>
<path d="M44.6005 38.1214C45.2754 38.1866 45.95 37.9936 46.49 37.5808C47.03 37.168 47.3958 36.5657 47.5148 35.8936C47.5148 35.8574 47.5508 35.8211 47.5508 35.7849V29.0832C47.5508 28.6028 47.7403 28.1421 48.0777 27.8025C48.415 27.4628 48.8726 27.272 49.3497 27.272C49.8268 27.272 50.2844 27.4628 50.6218 27.8025C50.9592 28.1421 51.1487 28.6028 51.1487 29.0832V35.7849C51.1686 35.8179 51.1809 35.8551 51.1847 35.8936C51.2888 36.5289 51.6136 37.1064 52.1012 37.523C52.5889 37.9396 53.2076 38.1683 53.8471 38.1683C54.4867 38.1683 55.1054 37.9396 55.5931 37.523C56.0807 37.1064 56.4055 36.5289 56.5096 35.8936C56.5133 35.8551 56.5256 35.8179 56.5456 35.7849V29.0832C56.5456 28.6028 56.7351 28.1421 57.0725 27.8025C57.4099 27.4628 57.8674 27.272 58.3445 27.272C58.8217 27.272 59.2792 27.4628 59.6166 27.8025C59.954 28.1421 60.1435 28.6028 60.1435 29.0832V35.7849C60.166 35.8234 60.1784 35.867 60.1795 35.9117C60.2857 36.5467 60.6124 37.123 61.1015 37.538C61.5905 37.953 62.21 38.1796 62.8496 38.1774C63.4891 38.1752 64.1071 37.9444 64.5934 37.5261C65.0796 37.1079 65.4025 36.5293 65.5044 35.8936C65.5044 35.8574 65.5404 35.8211 65.5404 35.7849V29.0832C65.5404 28.6028 65.7299 28.1421 66.0673 27.8025C66.4047 27.4628 66.8622 27.272 67.3394 27.272C67.8165 27.272 68.274 27.4628 68.6114 27.8025C68.9488 28.1421 69.1383 28.6028 69.1383 29.0832V35.7849C69.1583 35.8179 69.1706 35.8551 69.1743 35.8936C69.2932 36.5657 69.6591 37.168 70.1991 37.5808C70.7391 37.9936 71.4137 38.1866 72.0886 38.1214C72.793 38.0052 73.4308 37.6334 73.8816 37.0761C74.3323 36.5188 74.5648 35.8147 74.5352 35.0966V25.5331C74.5501 25.0383 74.752 24.5678 75.0997 24.2178C75.4474 23.8677 75.9146 23.6644 76.4061 23.6494C76.4061 23.6494 77.2696 23.6494 78.1331 23.6313V17.1651C76.5141 15.5169 71.5309 10.4272 71.5309 10.4272C71.3479 10.2552 71.201 10.0479 71.099 9.8177C70.997 9.58745 70.942 9.33893 70.9373 9.08687V3.72552H45.7518V9.1412C45.7489 9.5298 45.6298 9.9085 45.41 10.228L42.1539 15.1365V35.0966C42.1243 35.8147 42.3568 36.5188 42.8075 37.0761C43.2583 37.6334 43.8961 38.0052 44.6005 38.1214Z" fill="#424242"/>
<path d="M94.3232 61.686H99.7201V70.7423H94.3232V61.686Z" fill="#424242"/>
<path d="M48.7015 83.3306C48.3612 83.6685 47.9021 83.8573 47.4242 83.8559H45.8051L40.876 90.8111L43.8083 93.7635L50.7163 88.8006V87.1705C50.7149 86.6893 50.9024 86.2271 51.238 85.8845L61.4201 75.6508L58.8656 73.0789L48.7015 83.3306Z" fill="#424242"/>
<path d="M81.7311 45.3846V34.517H78.1332V45.3846H38.556V34.517H34.9581V45.3846H7.97363V63.4972H13.3705V59.8747C13.3705 59.3943 13.5601 58.9336 13.8974 58.594C14.2348 58.2543 14.6924 58.0635 15.1695 58.0635H24.1643C24.6414 58.0635 25.099 58.2543 25.4364 58.594C25.7737 58.9336 25.9633 59.3943 25.9633 59.8747V63.4972H34.1306C34.0272 61.419 34.435 59.3472 35.3179 57.4657C35.4412 57.2036 35.6252 56.9751 35.8545 56.7994C36.0838 56.6238 36.3516 56.5062 36.6355 56.4565C36.9193 56.4068 37.2109 56.4264 37.4856 56.5138C37.7604 56.6012 38.0102 56.7537 38.2142 56.9586L44.6185 63.4248L46.5254 62.7727L47.155 60.8528L40.7507 54.4228C40.5484 54.2156 40.3974 53.9633 40.3099 53.6864C40.2224 53.4095 40.2008 53.1157 40.247 52.8289C40.2976 52.5434 40.4154 52.2743 40.5907 52.0442C40.766 51.8141 40.9937 51.6298 41.2544 51.5067C43.5999 50.3756 46.2357 50.0034 48.7997 50.4413C51.3637 50.8791 53.7302 52.1054 55.5742 53.9519C56.7723 55.1417 57.7171 56.5647 58.3512 58.1342C58.9852 59.7036 59.2951 61.3867 59.2621 63.0807C59.2624 63.6471 59.3535 64.2098 59.5319 64.747L70.3257 53.8794C71.3326 52.8705 72.6134 52.1838 74.0068 51.9057C75.4003 51.6276 76.8444 51.7704 78.1574 52.3163C79.4705 52.8622 80.594 53.7867 81.3867 54.9736C82.1794 56.1605 82.6059 57.5569 82.6126 58.9872C82.6007 60.6296 82.0363 62.2194 81.0115 63.4972H90.7259V59.8747C90.7259 59.3943 90.9154 58.9336 91.2528 58.594C91.5902 58.2543 92.0478 58.0635 92.5249 58.0635H101.52C101.997 58.0635 102.454 58.2543 102.792 58.594C103.129 58.9336 103.319 59.3943 103.319 59.8747V63.4972H108.716V45.3846H81.7311Z" fill="#424242"/>
<path d="M49.6552 64.7833C49.5654 65.048 49.4165 65.2885 49.2201 65.4863C49.0236 65.6841 48.7848 65.8339 48.5218 65.9243L44.708 67.2103C44.3895 67.318 44.0475 67.3344 43.7203 67.2576C43.3931 67.1809 43.0935 67.014 42.8551 66.7756L37.782 61.6498C37.4438 63.9651 38.0114 66.3223 39.3651 68.2247C40.2086 69.3876 41.3132 70.3334 42.5887 70.985C43.8642 71.6365 45.2746 71.9754 46.7049 71.974C48.8952 71.9614 51.0163 72.7461 52.6774 74.1837L56.3293 70.525C55.9923 70.183 55.8032 69.7207 55.8032 69.239C55.8032 68.7572 55.9923 68.2949 56.3293 67.953L56.797 67.482C56.0371 66.1294 55.6461 64.5984 55.6637 63.0444C55.6885 61.835 55.4684 60.6331 55.0169 59.5121C54.5653 58.391 53.8917 57.3743 53.0372 56.5239C52.0496 55.5318 50.8463 54.7846 49.5225 54.3413C48.1987 53.8981 46.7906 53.771 45.4096 53.97L50.5007 59.0778C50.7338 59.3202 50.8971 59.6218 50.9731 59.9504C51.0492 60.279 51.0351 60.6222 50.9324 60.9434L49.6552 64.7833Z" fill="#424242"/>
<path d="M63.9573 78.2047L60.3594 81.8272L70.8473 92.3869C71.535 93.0494 72.4501 93.4192 73.4019 93.4192C74.3536 93.4192 75.2687 93.0494 75.9564 92.3869C76.6239 91.702 76.9964 90.7798 76.993 89.8203C76.9896 88.8607 76.6107 87.9411 75.9384 87.261L66.7277 77.9874L66.5118 78.2047C66.1716 78.5426 65.7125 78.7314 65.2346 78.73C64.9977 78.7324 64.7627 78.6871 64.5434 78.5969C64.324 78.5067 64.1248 78.3734 63.9573 78.2047Z" fill="#424242"/>
<path d="M79.0147 58.9872C79.0144 58.512 78.9204 58.0416 78.7382 57.6032C78.556 57.1648 78.2892 56.7672 77.9533 56.4334C77.2692 55.7708 76.3569 55.4007 75.4078 55.4007C74.4586 55.4007 73.5463 55.7708 72.8622 56.4334L60.1436 69.239L65.2346 74.3649L77.9533 61.5592C78.2909 61.2229 78.5586 60.8223 78.7408 60.3807C78.923 59.9391 79.0161 59.4654 79.0147 58.9872Z" fill="#424242"/>
</svg>
