<svg width="79" height="75" viewBox="0 0 79 75" fill="none" xmlns="http://www.w3.org/2000/svg">
<path d="M58.1317 18.6831C58.9068 18.1429 59.7425 17.6765 60.6411 17.3179L53.0399 13.3488C53.0534 13.5866 53.0781 13.8222 53.0781 14.0624C53.0781 14.7081 53.0115 15.3386 52.9152 15.9597L58.1317 18.6831Z" fill="#424242"/>
<path d="M26.0848 15.9586C25.9885 15.3386 25.9219 14.7082 25.9219 14.0625C25.9219 13.8222 25.9466 13.5879 25.9602 13.35L18.3601 17.3179C19.2575 17.6765 20.0932 18.1418 20.8684 18.682L26.0848 15.9586Z" fill="#424242"/>
<path d="M54.3125 39.8438C52.9485 39.8438 51.8438 40.8926 51.8438 42.1875V39.8438C51.8438 38.5488 50.739 37.5 49.375 37.5C48.011 37.5 46.9062 38.5488 46.9062 39.8438C46.9062 38.5488 45.8015 37.5 44.4375 37.5C43.0735 37.5 41.9688 38.5488 41.9688 39.8438V25.7812C41.9688 24.4863 40.864 23.4375 39.5 23.4375C38.136 23.4375 37.0312 24.4863 37.0312 25.7812V48.0633C37.0312 48.791 36.8523 49.5082 36.5103 50.1598L35.7969 51.5133H34.5625C34.5625 51.5133 33.8379 48.075 33.1738 44.9238C32.5455 41.9414 29.7867 39.7945 26.5823 39.7945C25.5355 39.7945 24.6875 40.5996 24.6875 41.5922V41.5934C24.6875 41.9484 24.7986 42.2953 25.006 42.5918L26.2761 44.4012C26.8551 45.225 27.2241 46.1672 27.3537 47.1492L28.2079 53.6344C28.3289 54.5555 28.6412 55.4449 29.1263 56.2512L33.3281 64.4531V67.9688H30.8594V72.6562H55.5469V67.9688H53.0781V64.4531L55.3 61.6406C56.2616 60.423 56.7812 58.943 56.7812 57.4219V42.1875C56.7812 40.8926 55.6765 39.8438 54.3125 39.8438Z" fill="#424242"/>
<path d="M7.66299 35.6145C9.31335 36.7922 11.3575 37.5 13.5781 37.5C15.7988 37.5 17.8429 36.7922 19.4932 35.6145C18.1046 33.866 15.9197 32.8125 13.5781 32.8125C11.2365 32.8125 9.05167 33.866 7.66299 35.6145Z" fill="#424242"/>
<path d="M13.5781 30.4688C15.6233 30.4688 17.2812 28.8948 17.2812 26.9531C17.2812 25.0115 15.6233 23.4375 13.5781 23.4375C11.5329 23.4375 9.875 25.0115 9.875 26.9531C9.875 28.8948 11.5329 30.4688 13.5781 30.4688Z" fill="#424242"/>
<path d="M13.5781 18.75C8.1333 18.75 3.70312 22.9559 3.70312 28.125C3.70312 30.3434 4.52275 32.3824 5.8855 33.9891C6.86313 32.8336 8.10244 31.923 9.50345 31.3195C8.22711 30.2449 7.40625 28.6957 7.40625 26.9531C7.40625 23.7223 10.175 21.0938 13.5781 21.0938C16.9813 21.0938 19.75 23.7223 19.75 26.9531C19.75 28.6957 18.9291 30.2449 17.6528 31.3195C19.0538 31.9242 20.2931 32.8336 21.2708 33.9891C22.6335 32.3824 23.4531 30.3434 23.4531 28.125C23.4531 22.9559 19.023 18.75 13.5781 18.75Z" fill="#424242"/>
<path d="M65.4219 30.4688C67.4671 30.4688 69.125 28.8948 69.125 26.9531C69.125 25.0115 67.4671 23.4375 65.4219 23.4375C63.3767 23.4375 61.7188 25.0115 61.7188 26.9531C61.7188 28.8948 63.3767 30.4688 65.4219 30.4688Z" fill="#424242"/>
<path d="M71.337 35.6145C69.9483 33.866 67.7635 32.8125 65.4219 32.8125C63.0803 32.8125 60.8954 33.866 59.5067 35.6145C61.1571 36.7922 63.2012 37.5 65.4219 37.5C67.6425 37.5 69.6866 36.7922 71.337 35.6145Z" fill="#424242"/>
<path d="M59.25 26.9531C59.25 23.7223 62.0187 21.0938 65.4219 21.0938C68.825 21.0938 71.5938 23.7223 71.5938 26.9531C71.5938 28.6957 70.7729 30.2449 69.4965 31.3195C70.8976 31.9242 72.1369 32.8336 73.1145 33.9891C74.4773 32.3824 75.2969 30.3434 75.2969 28.125C75.2969 22.9559 70.8667 18.75 65.4219 18.75C59.977 18.75 55.5469 22.9559 55.5469 28.125C55.5469 30.3434 56.3665 32.3824 57.7293 33.9891C58.7069 32.8336 59.9462 31.923 61.3472 31.3195C60.0709 30.2449 59.25 28.6957 59.25 26.9531Z" fill="#424242"/>
<path d="M11.1094 57.6375V42.1875H8.64062V57.6375C7.20752 58.1227 6.17188 59.4117 6.17188 60.9375C6.17188 62.8758 7.83334 64.4531 9.875 64.4531C11.9167 64.4531 13.5781 62.8758 13.5781 60.9375C13.5781 59.4117 12.5425 58.1227 11.1094 57.6375Z" fill="#424242"/>
<path d="M17.2812 42.1875C15.2396 42.1875 13.5781 43.7648 13.5781 45.7031C13.5781 47.2289 14.6138 48.518 16.0469 49.0031V64.4531H18.5156V49.0031C19.9487 48.518 20.9844 47.2289 20.9844 45.7031C20.9844 43.7648 19.3229 42.1875 17.2812 42.1875Z" fill="#424242"/>
<path d="M65.4219 57.6375V42.1875H62.9531V57.6375C61.52 58.1227 60.4844 59.4117 60.4844 60.9375C60.4844 62.8758 62.1458 64.4531 64.1875 64.4531C66.2292 64.4531 67.8906 62.8758 67.8906 60.9375C67.8906 59.4117 66.855 58.1227 65.4219 57.6375Z" fill="#424242"/>
<path d="M71.5938 42.1875C69.5521 42.1875 67.8906 43.7648 67.8906 45.7031C67.8906 47.2289 68.9263 48.518 70.3594 49.0031V64.4531H72.8281V49.0031C74.2612 48.518 75.2969 47.2289 75.2969 45.7031C75.2969 43.7648 73.6354 42.1875 71.5938 42.1875Z" fill="#424242"/>
<path d="M35.4093 16.0723C34.1428 14.9988 33.3281 13.4543 33.3281 11.7188C33.3281 8.48789 36.0968 5.85938 39.5 5.85938C42.9032 5.85938 45.6719 8.48789 45.6719 11.7188C45.6719 13.4543 44.8572 14.9988 43.5907 16.0723C45.6373 16.9535 47.3198 18.4852 48.3369 20.4293C49.7564 18.6574 50.6094 16.4555 50.6094 14.0625C50.6094 8.24649 45.6262 3.51562 39.5 3.51562C33.3738 3.51562 28.3906 8.24649 28.3906 14.0625C28.3906 16.4555 29.2436 18.6574 30.6631 20.4293C31.6802 18.4852 33.3627 16.9535 35.4093 16.0723Z" fill="#424242"/>
<path d="M32.5406 22.2715C33.3096 22.8609 34.1663 23.3496 35.0834 23.7293C35.887 22.1754 37.5559 21.0938 39.5 21.0938C41.4441 21.0938 43.113 22.1754 43.9178 23.7293C44.835 23.3484 45.6904 22.8609 46.4606 22.2715C45.425 19.4824 42.6748 17.5781 39.5 17.5781C36.3252 17.5781 33.5738 19.4824 32.5406 22.2715Z" fill="#424242"/>
<path d="M39.5 15.2344C41.5452 15.2344 43.2031 13.6604 43.2031 11.7188C43.2031 9.77712 41.5452 8.20312 39.5 8.20312C37.4548 8.20312 35.7969 9.77712 35.7969 11.7188C35.7969 13.6604 37.4548 15.2344 39.5 15.2344Z" fill="#424242"/>
</svg>
