<svg width="100" height="84" viewBox="0 0 100 84" fill="none" xmlns="http://www.w3.org/2000/svg">
<path d="M25 19.6875H32.8125V22.3125H25V19.6875Z" fill="#424242"/>
<path d="M89.0625 52.5C89.0625 52.8481 88.8979 53.1819 88.6049 53.4281C88.3118 53.6742 87.9144 53.8125 87.5 53.8125H79.6875C79.2731 53.8125 78.8757 53.6742 78.5826 53.4281C78.2896 53.1819 78.125 52.8481 78.125 52.5V48.5625H66.6562L59.5 54.5738L67.5 61.2938C68.6748 62.2806 69.3348 63.6191 69.3348 65.0147C69.3348 66.4103 68.6748 67.7488 67.5 68.7356C66.3252 69.7225 64.7318 70.2769 63.0703 70.2769C61.4089 70.2769 59.8154 69.7225 58.6406 68.7356L49.5469 61.0706L46.5 63.6431V64.9556C46.4977 65.1637 46.4371 65.3684 46.3231 65.5531C46.2091 65.7378 46.0449 65.8973 45.8438 66.0187L38.1094 70.6519C37.8465 70.8138 37.5291 70.9012 37.2031 70.9013C36.788 70.9023 36.3893 70.7655 36.0938 70.5206L31.6719 66.8063C31.4112 66.5853 31.2525 66.2939 31.2238 65.9838C31.1952 65.6737 31.2986 65.3651 31.5156 65.1131L37.0313 58.6163C37.1758 58.4473 37.3658 58.3094 37.5856 58.2136C37.8055 58.1178 38.0492 58.0669 38.2969 58.065H39.8594L42.875 55.545C42.0031 54.9814 40.9281 54.685 39.8281 54.705C38.1016 54.7068 36.3994 54.3637 34.8617 53.7042C33.3241 53.0447 31.9951 52.0876 30.9844 50.9119C30.37 50.1945 29.8905 49.4022 29.5625 48.5625H21.875V52.5C21.875 52.8481 21.7104 53.1819 21.4174 53.4281C21.1243 53.6742 20.7269 53.8125 20.3125 53.8125H12.5C12.0856 53.8125 11.6882 53.6742 11.3951 53.4281C11.1021 53.1819 10.9375 52.8481 10.9375 52.5V48.5625H6.25V76.125H93.75V48.5625H89.0625V52.5Z" fill="#424242"/>
<path d="M67.1875 19.6875H75V22.3125H67.1875V19.6875Z" fill="#424242"/>
<path d="M14.0625 44.625H18.75V51.1875H14.0625V44.625Z" fill="#424242"/>
<path d="M38.0625 27.5494C38.6487 27.5966 39.2346 27.4568 39.7036 27.1576C40.1727 26.8585 40.4904 26.422 40.5938 25.935C40.5938 25.9088 40.625 25.8825 40.625 25.8563V21C40.625 20.6519 40.7896 20.3181 41.0827 20.0719C41.3757 19.8258 41.7731 19.6875 42.1875 19.6875C42.6019 19.6875 42.9993 19.8258 43.2924 20.0719C43.5854 20.3181 43.75 20.6519 43.75 21V25.8563C43.7673 25.8802 43.778 25.9071 43.7813 25.935C43.8717 26.3954 44.1538 26.8138 44.5773 27.1157C45.0009 27.4176 45.5383 27.5833 46.0938 27.5833C46.6492 27.5833 47.1866 27.4176 47.6102 27.1157C48.0337 26.8138 48.3158 26.3954 48.4063 25.935C48.4095 25.9071 48.4202 25.8802 48.4375 25.8563V21C48.4375 20.6519 48.6021 20.3181 48.8951 20.0719C49.1882 19.8258 49.5856 19.6875 50 19.6875C50.4144 19.6875 50.8118 19.8258 51.1049 20.0719C51.3979 20.3181 51.5625 20.6519 51.5625 21V25.8563C51.5821 25.8841 51.5928 25.9158 51.5938 25.9481C51.686 26.4083 51.9698 26.8259 52.3945 27.1266C52.8193 27.4273 53.3574 27.5915 53.9129 27.5899C54.4684 27.5884 55.0051 27.4211 55.4275 27.118C55.8498 26.8149 56.1302 26.3956 56.2188 25.935C56.2188 25.9088 56.25 25.8825 56.25 25.8563V21C56.25 20.6519 56.4146 20.3181 56.7076 20.0719C57.0007 19.8258 57.3981 19.6875 57.8125 19.6875C58.2269 19.6875 58.6243 19.8258 58.9174 20.0719C59.2104 20.3181 59.375 20.6519 59.375 21V25.8563C59.3923 25.8802 59.403 25.9071 59.4063 25.935C59.5096 26.422 59.8273 26.8585 60.2964 27.1576C60.7654 27.4568 61.3513 27.5966 61.9375 27.5494C62.5493 27.4652 63.1033 27.1957 63.4948 26.7919C63.8863 26.3881 64.0882 25.8778 64.0625 25.3575V18.4275C64.0754 18.0689 64.2508 17.728 64.5528 17.4743C64.8548 17.2207 65.2606 17.0734 65.6875 17.0625C65.6875 17.0625 66.4375 17.0625 67.1875 17.0494V12.3638C65.7812 11.1694 61.4531 7.48125 61.4531 7.48125C61.2941 7.35662 61.1665 7.20643 61.078 7.03959C60.9894 6.87274 60.9416 6.69265 60.9375 6.51V2.625H39.0625V6.54938C39.06 6.83096 38.9565 7.10538 38.7656 7.33688L35.9375 10.8938V25.3575C35.9118 25.8778 36.1137 26.3881 36.5052 26.7919C36.8967 27.1957 37.4507 27.4652 38.0625 27.5494Z" fill="#424242"/>
<path d="M81.25 44.625H85.9375V51.1875H81.25V44.625Z" fill="#424242"/>
<path d="M41.625 60.3094C41.3295 60.5542 40.9307 60.691 40.5156 60.69H39.1094L34.8281 65.73L37.375 67.8694L43.375 64.2731V63.0919C43.3738 62.7432 43.5367 62.4083 43.8281 62.16L52.6719 54.7444L50.4531 52.8806L41.625 60.3094Z" fill="#424242"/>
<path d="M70.3125 32.8125V24.9375H67.1875V32.8125H32.8125V24.9375H29.6875V32.8125H6.25V45.9375H10.9375V43.3125C10.9375 42.9644 11.1021 42.6306 11.3951 42.3844C11.6882 42.1383 12.0856 42 12.5 42H20.3125C20.7269 42 21.1243 42.1383 21.4174 42.3844C21.7104 42.6306 21.875 42.9644 21.875 43.3125V45.9375H28.9688C28.8789 44.4315 29.2332 42.9302 30 41.5669C30.1071 41.3769 30.267 41.2113 30.4661 41.084C30.6653 40.9568 30.8979 40.8715 31.1444 40.8355C31.391 40.7995 31.6442 40.8138 31.8828 40.8771C32.1214 40.9404 32.3385 41.0509 32.5156 41.1994L38.0781 45.885L39.7344 45.4125L40.2812 44.0212L34.7187 39.3619C34.543 39.2117 34.4118 39.0289 34.3358 38.8282C34.2598 38.6276 34.2411 38.4147 34.2812 38.2069C34.3251 38 34.4275 37.805 34.5798 37.6383C34.732 37.4715 34.9297 37.3379 35.1562 37.2487C37.1934 36.4291 39.4828 36.1594 41.7098 36.4767C43.9367 36.794 45.9922 37.6826 47.5938 39.0206C48.6343 39.8828 49.455 40.914 50.0057 42.0512C50.5564 43.1885 50.8256 44.4081 50.7969 45.6356C50.7971 46.0461 50.8763 46.4538 51.0312 46.8431L60.4062 38.9681C61.2809 38.237 62.3932 37.7394 63.6035 37.5379C64.8139 37.3364 66.0681 37.4399 67.2086 37.8354C68.3491 38.231 69.3249 38.9009 70.0134 39.761C70.7019 40.6211 71.0723 41.6329 71.0781 42.6694C71.0678 43.8595 70.5776 45.0115 69.6875 45.9375H78.125V43.3125C78.125 42.9644 78.2896 42.6306 78.5826 42.3844C78.8757 42.1383 79.2731 42 79.6875 42H87.5C87.9144 42 88.3118 42.1383 88.6049 42.3844C88.8979 42.6306 89.0625 42.9644 89.0625 43.3125V45.9375H93.75V32.8125H70.3125Z" fill="#424242"/>
<path d="M42.4531 46.8694C42.3751 47.0612 42.2459 47.2355 42.0752 47.3788C41.9046 47.5221 41.6971 47.6307 41.4688 47.6962L38.1563 48.6281C37.8796 48.7061 37.5826 48.718 37.2984 48.6624C37.0142 48.6067 36.754 48.4858 36.5469 48.3131L32.1406 44.5987C31.8469 46.2765 32.3399 47.9846 33.5156 49.3631C34.2483 50.2058 35.2077 50.8912 36.3155 51.3633C37.4234 51.8355 38.6484 52.081 39.8906 52.08C41.7931 52.0709 43.6354 52.6395 45.0781 53.6812L48.25 51.03C47.9573 50.7822 47.793 50.4472 47.793 50.0981C47.793 49.749 47.9573 49.414 48.25 49.1662L48.6563 48.825C47.9962 47.8448 47.6566 46.7354 47.6719 45.6094C47.6934 44.733 47.5023 43.862 47.1101 43.0497C46.7179 42.2373 46.1328 41.5006 45.3906 40.8844C44.5328 40.1655 43.4877 39.624 42.3379 39.3028C41.1881 38.9816 39.9651 38.8895 38.7656 39.0337L43.1875 42.735C43.39 42.9106 43.5318 43.1292 43.5978 43.3673C43.6639 43.6054 43.6517 43.8541 43.5625 44.0869L42.4531 46.8694Z" fill="#424242"/>
<path d="M54.875 56.595L51.75 59.22L60.8594 66.8719C61.4567 67.3519 62.2515 67.6199 63.0781 67.6199C63.9048 67.6199 64.6996 67.3519 65.2969 66.8719C65.8767 66.3756 66.2002 65.7073 66.1973 65.012C66.1943 64.3167 65.8652 63.6503 65.2813 63.1575L57.2813 56.4375L57.0938 56.595C56.7982 56.8398 56.3995 56.9766 55.9844 56.9756C55.7786 56.9773 55.5745 56.9446 55.384 56.8792C55.1935 56.8139 55.0205 56.7172 54.875 56.595Z" fill="#424242"/>
<path d="M67.9531 42.6694C67.9529 42.325 67.8712 41.9841 67.713 41.6664C67.5547 41.3488 67.323 41.0606 67.0312 40.8187C66.4371 40.3386 65.6447 40.0704 64.8203 40.0704C63.9959 40.0704 63.2035 40.3386 62.6094 40.8187L51.5625 50.0981L55.9844 53.8125L67.0312 44.5331C67.3245 44.2894 67.557 43.9991 67.7153 43.6791C67.8735 43.3591 67.9544 43.0159 67.9531 42.6694Z" fill="#424242"/>
</svg>
