<svg width="116" height="115" viewBox="0 0 116 115" fill="none" xmlns="http://www.w3.org/2000/svg">
<path d="M85.3385 28.6476C86.4765 27.8192 87.7033 27.1041 89.0225 26.5542L77.8637 20.4682C77.8836 20.833 77.9199 21.1941 77.9199 21.5625C77.9199 22.5526 77.822 23.5193 77.6807 24.4716L85.3385 28.6476Z" fill="#424242"/>
<path d="M38.2931 24.4699C38.1518 23.5193 38.0539 22.5526 38.0539 21.5625C38.0539 21.1942 38.0902 20.8348 38.1101 20.47L26.9531 26.5542C28.2705 27.1041 29.4973 27.8175 30.6353 28.6458L38.2931 24.4699Z" fill="#424242"/>
<path d="M79.7311 61.0938C77.7288 61.0938 76.107 62.702 76.107 64.6875V61.0938C76.107 59.1082 74.4852 57.5 72.4828 57.5C70.4805 57.5 68.8586 59.1082 68.8586 61.0938C68.8586 59.1082 67.2368 57.5 65.2345 57.5C63.2321 57.5 61.6103 59.1082 61.6103 61.0938V39.5312C61.6103 37.5457 59.9885 35.9375 57.9862 35.9375C55.9838 35.9375 54.362 37.5457 54.362 39.5312V73.697C54.362 74.8129 54.0993 75.9126 53.5973 76.9116L52.5499 78.987H50.7378C50.7378 78.987 49.6742 73.715 48.6993 68.8832C47.7769 64.3102 43.7269 61.0183 39.0228 61.0183C37.4861 61.0183 36.2412 62.2527 36.2412 63.7747V63.7765C36.2412 64.3209 36.4043 64.8528 36.7087 65.3074L38.5734 68.0818C39.4232 69.345 39.965 70.7897 40.1553 72.2955L41.4093 82.2394C41.5868 83.6517 42.0453 85.0155 42.7575 86.2518L48.9258 98.8281V104.219H45.3016V111.406H81.5432V104.219H77.919V98.8281L81.1808 94.5156C82.5924 92.6487 83.3553 90.3792 83.3553 88.0469V64.6875C83.3553 62.702 81.7335 61.0938 79.7311 61.0938Z" fill="#424242"/>
<path d="M11.249 54.6088C13.6718 56.4147 16.6726 57.5 19.9325 57.5C23.1924 57.5 26.1932 56.4147 28.616 54.6088C26.5774 51.9279 23.37 50.3125 19.9325 50.3125C16.495 50.3125 13.2876 51.9279 11.249 54.6088Z" fill="#424242"/>
<path d="M19.9333 46.7188C22.9357 46.7188 25.3695 44.3053 25.3695 41.3281C25.3695 38.351 22.9357 35.9375 19.9333 35.9375C16.931 35.9375 14.4971 38.351 14.4971 41.3281C14.4971 44.3053 16.931 46.7188 19.9333 46.7188Z" fill="#424242"/>
<path d="M19.9332 28.75C11.9401 28.75 5.43652 35.199 5.43652 43.125C5.43652 46.5265 6.63974 49.653 8.64028 52.1166C10.0754 50.3448 11.8948 48.9487 13.9515 48.0233C12.0778 46.3755 10.8728 44.0001 10.8728 41.3281C10.8728 36.3741 14.9373 32.3438 19.9332 32.3438C24.9291 32.3438 28.9936 36.3741 28.9936 41.3281C28.9936 44.0001 27.7885 46.3755 25.9148 48.0233C27.9715 48.9505 29.7909 50.3448 31.226 52.1166C33.2266 49.653 34.4298 46.5265 34.4298 43.125C34.4298 35.199 27.9262 28.75 19.9332 28.75Z" fill="#424242"/>
<path d="M96.0398 46.7188C99.0421 46.7188 101.476 44.3053 101.476 41.3281C101.476 38.351 99.0421 35.9375 96.0398 35.9375C93.0374 35.9375 90.6035 38.351 90.6035 41.3281C90.6035 44.3053 93.0374 46.7188 96.0398 46.7188Z" fill="#424242"/>
<path d="M104.723 54.6088C102.685 51.9279 99.4774 50.3125 96.0399 50.3125C92.6024 50.3125 89.395 51.9279 87.3564 54.6088C89.7792 56.4147 92.78 57.5 96.0399 57.5C99.2999 57.5 102.301 56.4147 104.723 54.6088Z" fill="#424242"/>
<path d="M86.9802 41.3281C86.9802 36.3741 91.0447 32.3438 96.0406 32.3438C101.036 32.3438 105.101 36.3741 105.101 41.3281C105.101 44.0001 103.896 46.3755 102.022 48.0233C104.079 48.9505 105.898 50.3448 107.333 52.1166C109.334 49.653 110.537 46.5265 110.537 43.125C110.537 35.199 104.034 28.75 96.0406 28.75C88.0475 28.75 81.5439 35.199 81.5439 43.125C81.5439 46.5265 82.7472 49.653 84.7477 52.1166C86.1829 50.3448 88.0022 48.9487 90.0589 48.0233C88.1852 46.3755 86.9802 44.0001 86.9802 41.3281Z" fill="#424242"/>
<path d="M16.3089 88.3775V64.6875H12.6847V88.3775C10.5809 89.1214 9.06055 91.098 9.06055 93.4375C9.06055 96.4095 11.4996 98.8281 14.4968 98.8281C17.494 98.8281 19.933 96.4095 19.933 93.4375C19.933 91.098 18.4127 89.1214 16.3089 88.3775Z" fill="#424242"/>
<path d="M25.3689 64.6875C22.3717 64.6875 19.9326 67.1061 19.9326 70.0781C19.9326 72.4177 21.453 74.3942 23.5568 75.1381V98.8281H27.1809V75.1381C29.2848 74.3942 30.8051 72.4177 30.8051 70.0781C30.8051 67.1061 28.366 64.6875 25.3689 64.6875Z" fill="#424242"/>
<path d="M96.0403 88.3775V64.6875H92.4162V88.3775C90.3123 89.1214 88.792 91.098 88.792 93.4375C88.792 96.4095 91.2311 98.8281 94.2282 98.8281C97.2254 98.8281 99.6645 96.4095 99.6645 93.4375C99.6645 91.098 98.1441 89.1214 96.0403 88.3775Z" fill="#424242"/>
<path d="M105.1 64.6875C102.103 64.6875 99.6641 67.1061 99.6641 70.0781C99.6641 72.4177 101.184 74.3942 103.288 75.1381V98.8281H106.912V75.1381C109.016 74.3942 110.537 72.4177 110.537 70.0781C110.537 67.1061 108.097 64.6875 105.1 64.6875Z" fill="#424242"/>
<path d="M51.9812 24.6441C50.122 22.9982 48.9261 20.6299 48.9261 17.9688C48.9261 13.0148 52.9905 8.98438 57.9865 8.98438C62.9824 8.98438 67.0469 13.0148 67.0469 17.9688C67.0469 20.6299 65.8509 22.9982 63.9917 24.6441C66.9961 25.9954 69.466 28.3439 70.9591 31.3249C73.043 28.608 74.2952 25.2317 74.2952 21.5625C74.2952 12.6446 66.9798 5.39062 57.9865 5.39062C48.9931 5.39062 41.6777 12.6446 41.6777 21.5625C41.6777 25.2317 42.9299 28.608 45.0138 31.3249C46.5069 28.3439 48.9768 25.9954 51.9812 24.6441Z" fill="#424242"/>
<path d="M47.7705 34.1496C48.8994 35.0534 50.157 35.8027 51.5034 36.3849C52.6831 34.0023 55.133 32.3437 57.987 32.3437C60.841 32.3437 63.291 34.0023 64.4725 36.3849C65.8188 35.8009 67.0746 35.0534 68.2053 34.1496C66.685 29.873 62.6477 26.9531 57.987 26.9531C53.3263 26.9531 49.2872 29.873 47.7705 34.1496Z" fill="#424242"/>
<path d="M57.987 23.3594C60.9894 23.3594 63.4233 20.9459 63.4233 17.9688C63.4233 14.9916 60.9894 12.5781 57.987 12.5781C54.9847 12.5781 52.5508 14.9916 52.5508 17.9688C52.5508 20.9459 54.9847 23.3594 57.987 23.3594Z" fill="#424242"/>
</svg>
