<svg width="117" height="115" viewBox="0 0 117 115" fill="none" xmlns="http://www.w3.org/2000/svg">
<g clip-path="url(#clip0)">
<path d="M108.62 55.2625C108.256 55.1867 107.912 55.1153 107.606 55.0365C104.141 54.1429 102.559 53.6531 101.39 51.4141L96.9598 42.5209C95.5361 39.7956 91.86 37.5782 88.7651 37.5782H80.8786V27.3088C80.8786 25.4649 79.3656 23.9646 77.5056 23.9646L22.5758 24.0193C20.766 24.0193 19.4012 25.4455 19.4012 27.3369V30.3722H5.32964C2.4238 30.3725 0.0595703 32.7166 0.0595703 35.5983C0.0595703 38.48 2.4238 40.8242 5.32964 40.8242H19.401V45.833H10.188C7.28216 45.833 4.91792 48.1773 4.91792 51.0588C4.91792 53.9403 7.28216 56.2846 10.188 56.2846H19.401V61.2934H15.0463C12.1405 61.2934 9.77627 63.6378 9.77627 66.5193C9.77627 69.4007 12.1405 71.7451 15.0463 71.7451H19.401V76.9839C19.401 78.8278 20.9139 80.3281 22.7734 80.3281H28.4873C29.3772 86.3757 34.641 91.0354 40.9835 91.0354C47.3265 91.0354 52.5905 86.3757 53.4806 80.3281H76.6049C76.7251 80.3281 76.8482 80.3201 76.971 80.3122C77.8541 86.3675 83.1212 91.0354 89.4692 91.0354C95.8122 91.0354 101.076 86.3757 101.966 80.3281H110.174C113.404 80.3281 116.033 77.7219 116.033 74.5184V64.6605C116.033 56.8048 111.572 55.8766 108.62 55.2625ZM89.4692 73.9595C92.0017 73.9595 94.062 76.0018 94.062 78.5123C94.062 81.0228 92.0017 83.0651 89.4692 83.0651C86.9377 83.0651 84.8781 81.0228 84.8781 78.5123C84.8781 76.0018 86.9377 73.9595 89.4692 73.9595ZM80.8786 54.5544V42.4284H86.9054C89.2217 42.4284 92.0792 44.1519 93.1398 46.1813L97.0817 54.0952C97.1652 54.2553 97.2519 54.4079 97.342 54.5541H80.8786V54.5544ZM45.5763 78.512C45.5763 81.0223 43.5159 83.0648 40.9835 83.0648C38.452 83.0648 36.3927 81.0225 36.3927 78.512C36.3927 76.0015 38.452 73.9592 40.9835 73.9592C43.5159 73.9595 45.5763 76.0018 45.5763 78.512Z" fill="#424242"/>
<g clip-path="url(#clip1)">
<path d="M109.122 63.2189C108.758 63.143 108.414 63.0717 108.108 62.9929C104.643 62.0993 103.061 61.6094 101.892 59.3705L97.4618 50.4772C96.0381 47.7519 92.362 45.5346 89.2671 45.5346H81.3805V35.2651C81.3805 33.4212 79.8676 31.921 78.0076 31.921L23.0778 31.9757C21.2679 31.9757 19.9032 33.4018 19.9032 35.2932V38.3286H5.83159C2.92576 38.3288 0.561523 40.673 0.561523 43.5547C0.561523 46.4364 2.92576 48.7805 5.83159 48.7805H19.9029V53.7893H10.6899C7.78411 53.7893 5.41988 56.1337 5.41988 59.0152C5.41988 61.8966 7.78411 64.241 10.6899 64.241H19.9029V69.2498H15.5483C12.6425 69.2498 10.2782 71.5942 10.2782 74.4757C10.2782 77.3571 12.6425 79.7015 15.5483 79.7015H19.9029V84.9403C19.9029 86.7842 21.4159 88.2844 23.2754 88.2844H28.9893C29.8791 94.332 35.1429 98.9917 41.4854 98.9917C47.8284 98.9917 53.0925 94.332 53.9826 88.2844H77.1069C77.227 88.2844 77.3501 88.2765 77.473 88.2685C78.3561 94.3238 83.6232 98.9917 89.9712 98.9917C96.3142 98.9917 101.578 94.332 102.468 88.2844H110.676C113.906 88.2844 116.535 85.6782 116.535 82.4748V72.6168C116.535 64.7612 112.073 63.833 109.122 63.2189ZM89.9712 81.9159C92.5036 81.9159 94.564 83.9582 94.564 86.4686C94.564 88.9791 92.5036 91.0214 89.9712 91.0214C87.4397 91.0214 85.3801 88.9791 85.3801 86.4686C85.3801 83.9582 87.4397 81.9159 89.9712 81.9159ZM81.3805 62.5107V50.3847H87.4073C89.7237 50.3847 92.5811 52.1083 93.6418 54.1377L97.5837 62.0515C97.6672 62.2116 97.7539 62.3643 97.8439 62.5105H81.3805V62.5107ZM46.0782 86.4684C46.0782 88.9786 44.0179 91.0212 41.4854 91.0212C38.9539 91.0212 36.8946 88.9789 36.8946 86.4684C36.8946 83.9579 38.9539 81.9156 41.4854 81.9156C44.0179 81.9159 46.0782 83.9582 46.0782 86.4684Z" fill="#424242"/>
</g>
</g>
<defs>
<clipPath id="clip0">
<rect width="115.973" height="115" fill="white" transform="translate(0.0595703)"/>
</clipPath>
<clipPath id="clip1">
<rect width="115.973" height="115" fill="white" transform="translate(0.561523 7.95636)"/>
</clipPath>
</defs>
</svg>
