<svg width="108" height="102" viewBox="0 0 108 102" fill="none" xmlns="http://www.w3.org/2000/svg">
<g clip-path="url(#clip0)">
<path d="M101.097 49.0155C100.758 48.9482 100.438 48.8849 100.153 48.815C96.9257 48.0224 95.4527 47.588 94.3637 45.6021L90.2384 37.7142C88.9126 35.297 85.4892 33.3303 82.6071 33.3303H75.2627V24.2217C75.2627 22.5863 73.8538 21.2556 72.1216 21.2556L20.9683 21.3041C19.2829 21.3041 18.0119 22.5691 18.0119 24.2467V26.9389H4.90775C2.20169 26.9391 0 29.0183 0 31.5742C0 34.1302 2.20169 36.2093 4.90775 36.2093H18.0117V40.6519H9.4321C6.72604 40.6519 4.52434 42.7313 4.52434 45.287C4.52434 47.8427 6.72604 49.9221 9.4321 49.9221H18.0117V54.3647H13.9564C11.2504 54.3647 9.04868 56.4441 9.04868 58.9998C9.04868 61.5555 11.2504 63.6349 13.9564 63.6349H18.0117V68.2814C18.0117 69.9169 19.4206 71.2476 21.1523 71.2476H26.4733C27.302 76.6115 32.2039 80.7445 38.1104 80.7445C44.0173 80.7445 48.9194 76.6115 49.7484 71.2476H71.2829C71.3948 71.2476 71.5094 71.2405 71.6238 71.2335C72.4462 76.6043 77.3512 80.7445 83.2627 80.7445C89.1697 80.7445 94.0718 76.6115 94.9007 71.2476H102.544C105.552 71.2476 108 68.936 108 66.0947V57.3511C108 50.3834 103.846 49.5602 101.097 49.0155ZM83.2627 65.5989C85.6211 65.5989 87.5398 67.4104 87.5398 69.637C87.5398 71.8637 85.6211 73.6752 83.2627 73.6752C80.9053 73.6752 78.9873 71.8637 78.9873 69.637C78.9873 67.4104 80.9053 65.5989 83.2627 65.5989ZM75.2627 48.3874V37.6322H80.8752C83.0323 37.6322 85.6933 39.1609 86.681 40.9609L90.3519 47.9801C90.4296 48.1221 90.5104 48.2575 90.5943 48.3872H75.2627V48.3874ZM42.3875 69.6368C42.3875 71.8633 40.4688 73.6749 38.1104 73.6749C35.753 73.6749 33.8352 71.8635 33.8352 69.6368C33.8352 67.4101 35.753 65.5987 38.1104 65.5987C40.4688 65.5989 42.3875 67.4104 42.3875 69.6368Z" fill="#424242"/>
<g clip-path="url(#clip1)">
<path d="M101.564 56.0724C101.225 56.0051 100.905 55.9418 100.62 55.8719C97.3927 55.0793 95.9197 54.6449 94.8307 52.659L90.7054 44.7711C89.3796 42.3539 85.9562 40.3872 83.0741 40.3872H75.7297V31.2786C75.7297 29.6432 74.3208 28.3125 72.5887 28.3125L21.4353 28.361C19.7499 28.361 18.4789 29.626 18.4789 31.3036V33.9958H5.37476C2.6687 33.996 0.467003 36.0752 0.467003 38.6311C0.467003 41.1871 2.6687 43.2662 5.37476 43.2662H18.4787V47.7088H9.8991C7.19304 47.7088 4.99135 49.7882 4.99135 52.3439C4.99135 54.8996 7.19304 56.979 9.8991 56.979H18.4787V61.4216H14.4234C11.7174 61.4216 9.51569 63.501 9.51569 66.0567C9.51569 68.6124 11.7174 70.6918 14.4234 70.6918H18.4787V75.3384C18.4787 76.9738 19.8876 78.3045 21.6193 78.3045H26.9403C27.769 83.6684 32.671 87.8014 38.5774 87.8014C44.4843 87.8014 49.3865 83.6684 50.2154 78.3045H71.7499C71.8618 78.3045 71.9764 78.2974 72.0908 78.2904C72.9132 83.6612 77.8182 87.8014 83.7298 87.8014C89.6367 87.8014 94.5388 83.6684 95.3678 78.3045H103.011C106.019 78.3045 108.467 75.9929 108.467 73.1516V64.408C108.467 57.4403 104.313 56.6171 101.564 56.0724ZM83.7298 72.6558C86.0881 72.6558 88.0068 74.4673 88.0068 76.694C88.0068 78.9206 86.0881 80.7321 83.7298 80.7321C81.3723 80.7321 79.4543 78.9206 79.4543 76.694C79.4543 74.4673 81.3723 72.6558 83.7298 72.6558ZM75.7297 55.4443V44.6891H81.3422C83.4993 44.6891 86.1603 46.2178 87.148 48.0178L90.8189 55.037C90.8966 55.179 90.9774 55.3144 91.0613 55.4441H75.7297V55.4443ZM42.8545 76.6937C42.8545 78.9202 40.9358 80.7319 38.5774 80.7319C36.22 80.7319 34.3022 78.9204 34.3022 76.6937C34.3022 74.467 36.22 72.6556 38.5774 72.6556C40.9358 72.6558 42.8545 74.4673 42.8545 76.6937Z" fill="#424242"/>
</g>
</g>
<defs>
<clipPath id="clip0">
<rect width="108" height="102" fill="white"/>
</clipPath>
<clipPath id="clip1">
<rect width="108" height="102" fill="white" transform="translate(0.467003 7.05688)"/>
</clipPath>
</defs>
</svg>
