<svg width="84" height="71" viewBox="0 0 84 71" fill="none" xmlns="http://www.w3.org/2000/svg">
<path d="M63.3281 41.8789C57.9003 41.8789 53.4844 38.1464 53.4844 33.5586C53.4844 28.9708 57.9003 25.2383 63.3281 25.2383C68.756 25.2383 73.1719 28.9708 73.1719 33.5586C73.1719 38.1464 68.756 41.8789 63.3281 41.8789Z" fill="#424242"/>
<path d="M81.5391 71H2.46094C1.10184 71 0 70.0687 0 68.9199V64.7598C0 63.611 1.10184 62.6797 2.46094 62.6797H81.5391C82.8982 62.6797 84 63.611 84 64.7598V68.9199C84 70.0687 82.8982 71 81.5391 71Z" fill="#424242"/>
<path d="M71.8085 43.7694C69.4071 45.1986 66.4817 46.0391 63.3281 46.0391C60.1745 46.0391 57.2491 45.1986 54.8477 43.7694C52.6951 44.8028 50.8313 46.2174 49.3828 47.9028V52.2793C49.3828 54.4383 48.0787 56.3442 46.1016 57.4651V58.5195H80.5547V56.4394C80.5547 51.015 77.0267 46.2745 71.8085 43.7694Z" fill="#424242"/>
<path d="M42 29.3984H2.625C1.26591 29.3984 0.164062 30.3298 0.164062 31.4785V52.2793C0.164062 53.4281 1.26591 54.3594 2.625 54.3594H13.9762L12.3355 58.5195H32.2893L30.6487 54.3594H42C43.3591 54.3594 44.4609 53.4281 44.4609 52.2793V31.4785C44.4609 30.3298 43.3591 29.3984 42 29.3984Z" fill="#424242"/>
<path d="M55.125 0H19.0312C15.865 0 13.2891 2.17729 13.2891 4.85352V15.9473C13.2891 18.6235 15.865 20.8008 19.0312 20.8008H39.6142L48.8381 25.9983C49.2499 26.2303 49.7259 26.3477 50.2033 26.3477C50.6015 26.3477 51.0005 26.2661 51.3644 26.1015C52.1645 25.7396 52.6641 25.0347 52.6641 24.2676V20.8008H55.125C58.2912 20.8008 60.8672 18.6235 60.8672 15.9473V4.85352C60.8672 2.17729 58.2912 0 55.125 0ZM48.5625 12.4805H25.5938C24.2347 12.4805 23.1328 11.5491 23.1328 10.4004C23.1328 9.25163 24.2347 8.32031 25.5938 8.32031H48.5625C49.9216 8.32031 51.0234 9.25163 51.0234 10.4004C51.0234 11.5491 49.9216 12.4805 48.5625 12.4805Z" fill="#424242"/>
</svg>
