<svg width="117" height="115" viewBox="0 0 117 115" fill="none" xmlns="http://www.w3.org/2000/svg">
<g clip-path="url(#clip0)">
<path d="M88.0974 67.832C80.6036 67.832 74.5068 61.7864 74.5068 54.3555C74.5068 46.9245 80.6036 40.8789 88.0974 40.8789C95.5913 40.8789 101.688 46.9245 101.688 54.3555C101.688 61.7864 95.5913 67.832 88.0974 67.832Z" fill="#424242"/>
<path d="M113.24 115H4.06269C2.18628 115 0.665039 113.492 0.665039 111.631V104.893C0.665039 103.032 2.18628 101.523 4.06269 101.523H113.24C115.117 101.523 116.638 103.032 116.638 104.893V111.631C116.638 113.492 115.117 115 113.24 115Z" fill="#424242"/>
<path d="M99.8063 70.8941C96.4909 73.209 92.452 74.5703 88.098 74.5703C83.744 74.5703 79.7051 73.209 76.3897 70.8941C73.4177 72.5679 70.8445 74.8592 68.8447 77.5891V84.6777C68.8447 88.1747 67.0441 91.2617 64.3145 93.0772V94.7852H111.882V91.416C111.882 82.63 107.011 74.9517 99.8063 70.8941Z" fill="#424242"/>
<path d="M58.6516 47.6172H4.28925C2.41284 47.6172 0.891602 49.1257 0.891602 50.9863V84.6777C0.891602 86.5384 2.41284 88.0469 4.28925 88.0469H19.961L17.6959 94.7852H45.2447L42.9796 88.0469H58.6516C60.5281 88.0469 62.0493 86.5384 62.0493 84.6777V50.9863C62.0493 49.1257 60.5281 47.6172 58.6516 47.6172Z" fill="#424242"/>
<path d="M76.7727 0H26.9405C22.5691 0 19.0127 3.52659 19.0127 7.86133V25.8301C19.0127 30.1648 22.5691 33.6914 26.9405 33.6914H55.358L68.0929 42.11C68.6614 42.4858 69.3185 42.6758 69.9777 42.6758C70.5274 42.6758 71.0783 42.5437 71.5807 42.2771C72.6854 41.6909 73.3751 40.5492 73.3751 39.3066V33.6914H76.7727C81.1442 33.6914 84.7006 30.1648 84.7006 25.8301V7.86133C84.7006 3.52659 81.1442 0 76.7727 0ZM67.7123 20.2148H36.0009C34.1245 20.2148 32.6033 18.7064 32.6033 16.8457C32.6033 14.985 34.1245 13.4766 36.0009 13.4766H67.7123C69.5888 13.4766 71.11 14.985 71.11 16.8457C71.11 18.7064 69.5888 20.2148 67.7123 20.2148Z" fill="#424242"/>
</g>
<defs>
<clipPath id="clip0">
<rect width="115.973" height="115" fill="white" transform="translate(0.665039)"/>
</clipPath>
</defs>
</svg>
