<svg width="84" height="71" viewBox="0 0 84 71" fill="none" xmlns="http://www.w3.org/2000/svg">
<path d="M5.51474 25.916C5.95629 27.2087 6.56904 28.4553 7.344 29.6249L5.13627 32.0026C4.41538 32.7797 4.49648 33.8878 5.30748 34.588L9.11019 37.8352C9.93021 38.5354 11.2278 38.5969 12.1379 37.9813L14.9044 36.1115C16.3281 36.8118 17.842 37.358 19.419 37.7428L19.8335 40.7822C19.9686 41.7671 20.9418 42.5058 22.0953 42.5058H27.4749C28.6284 42.5058 29.6016 41.767 29.7367 40.7822L30.1332 37.8505C31.8273 37.4734 33.4493 36.9117 34.9722 36.1807L37.6485 37.989C38.5587 38.6046 39.8563 38.5353 40.6763 37.8428L44.479 34.5956C45.299 33.8954 45.3711 32.7873 44.6502 32.0102L42.5686 29.7556C43.4337 28.4782 44.1095 27.1163 44.5601 25.6928L47.7681 25.3773C48.9216 25.2619 49.7866 24.4308 49.7866 23.4459V18.8521C49.7866 17.8672 48.9215 17.0362 47.7681 16.9208L44.6051 16.6053C44.1725 15.1971 43.5238 13.8506 42.6949 12.5886L44.6413 10.488C45.3622 9.71078 45.2811 8.60273 44.4701 7.90251L40.6764 4.66302C39.8564 3.9628 38.5587 3.90124 37.6486 4.51682L35.2607 6.13272C33.7107 5.35555 32.0526 4.76305 30.3135 4.36293L29.9531 1.72362C29.8179 0.738696 28.8447 0 27.6913 0H22.3116C21.1582 0 20.185 0.738696 20.0498 1.72362L19.6894 4.36293C17.9052 4.77075 16.2021 5.38633 14.6161 6.19428L12.138 4.51682C11.2279 3.90124 9.9303 3.97049 9.11028 4.66302L5.30757 7.91021C4.48756 8.61043 4.41547 9.71847 5.13636 10.4956L7.20893 12.7348C6.3799 14.0121 5.74912 15.3741 5.33461 16.79L2.0185 17.1131C0.865071 17.2286 0 18.0596 0 19.0445V23.6383C0 24.6232 0.865071 25.4542 2.0185 25.5697L5.51474 25.916ZM25.0059 13.489C29.9079 13.489 33.8999 16.8978 33.8999 21.0837C33.8999 25.2696 29.9079 28.6784 25.0059 28.6784C20.1039 28.6784 16.1119 25.2696 16.1119 21.0837C16.1119 16.8978 20.1038 13.489 25.0059 13.489Z" fill="#424242"/>
<path d="M78.1897 27.0472L75.3512 25.0004C74.4772 24.3695 73.1885 24.4002 72.3595 25.0697L70.7916 26.3239C69.4671 25.7776 68.0613 25.3929 66.6104 25.1697L66.1691 23.323C65.9438 22.3688 64.9075 21.7071 63.7719 21.784L60.0683 22.0533C58.9329 22.138 58.0408 22.9305 58.0048 23.9078L57.9328 25.7853C56.5089 26.2239 55.1663 26.8241 53.9407 27.5782L52.0665 26.5163C51.1111 25.9777 49.8407 26.1316 49.1018 26.8779L46.7049 29.3172C45.9659 30.0636 46.0019 31.1639 46.7858 31.8718L48.4259 33.3645C47.8581 34.4572 47.4526 35.6038 47.2184 36.781L44.8755 37.1888C43.7581 37.3812 42.9832 38.2661 43.0733 39.2357L43.3887 42.3982C43.4878 43.3678 44.4159 44.1295 45.5604 44.1603L48.0925 44.2295C48.5522 45.2606 49.1559 46.2379 49.8857 47.1535L48.4711 48.9771C47.8403 49.7928 48.0205 50.8778 48.8945 51.5087L51.733 53.5555C52.6072 54.1865 53.8957 54.1557 54.7248 53.4863L56.5811 52.0012C57.7976 52.486 59.0771 52.8476 60.3927 53.0631L60.9065 55.233C61.1317 56.1871 62.168 56.8489 63.3034 56.7719L67.007 56.5026C68.1424 56.418 69.0345 55.6255 69.0706 54.6482L69.1517 52.5243C70.5033 52.1165 71.7828 51.5625 72.9633 50.8778L75.0089 52.032C75.9641 52.5706 77.2346 52.4167 77.9736 51.6703L80.3706 49.2465C81.1094 48.5001 81.0733 47.3997 80.2895 46.6918L78.6403 45.1991C79.2442 44.1065 79.6858 42.9522 79.9379 41.7672L82.1907 41.3748C83.3081 41.1824 84.0831 40.2975 83.9929 39.3279L83.6776 36.1653C83.5784 35.1958 82.6503 34.434 81.5059 34.4032L79.2441 34.3417C78.7754 33.2183 78.1446 32.1565 77.3607 31.1715L78.5952 29.5863C79.2441 28.7708 79.0638 27.6782 78.1897 27.0472ZM64.2316 45.3298C60.2306 45.6223 56.6981 43.0753 56.3647 39.6589C56.0222 36.2424 59.0051 33.226 63.0059 32.9413C67.0068 32.6489 70.5394 35.196 70.8727 38.6123C71.2152 42.0289 68.2323 45.0452 64.2316 45.3298Z" fill="#424242"/>
<path d="M18.4727 53.8404C17.3373 53.9405 16.4632 54.756 16.4542 55.7334L16.4272 57.6801C16.4091 58.6573 17.2562 59.4884 18.3916 59.6116L20.0677 59.7962C20.347 60.6658 20.7435 61.4968 21.2571 62.2816L20.1758 63.4205C19.4549 64.1822 19.509 65.2749 20.311 65.9751L21.9059 67.3679C22.7079 68.0681 23.9875 68.145 24.8976 67.5448L26.2402 66.6599C27.1864 67.137 28.1867 67.5141 29.2319 67.7757L29.4121 69.2531C29.5293 70.2226 30.4844 70.969 31.6289 70.9767L33.9088 70.9998C35.0531 71.0152 36.0264 70.2919 36.1706 69.3223L36.3778 67.9219C37.5133 67.6833 38.5947 67.3217 39.6218 66.8446L40.8834 67.7141C41.7755 68.3297 43.0552 68.2835 43.8752 67.5987L45.5062 66.2367C46.3262 65.552 46.4163 64.4593 45.7135 63.6821L44.7492 62.6124C45.3439 61.766 45.8036 60.8657 46.119 59.9193L47.6148 59.7885C48.7502 59.6884 49.6242 58.8728 49.6333 57.8956L49.6602 55.9487C49.6784 54.9716 48.8313 54.1405 47.6959 54.0173L46.236 53.8558C45.9567 52.917 45.5422 52.009 45.0016 51.1626L45.9117 50.2085C46.6326 49.4467 46.5785 48.354 45.7765 47.6538L44.1817 46.2611C43.3797 45.5608 42.0999 45.4838 41.1899 46.0841L40.0994 46.7997C39.0722 46.2688 37.9728 45.8609 36.8195 45.5839L36.6752 44.3759C36.558 43.4062 35.603 42.6599 34.4585 42.6522L32.1786 42.6291C31.0342 42.6138 30.061 43.3371 29.9167 44.3066L29.7365 45.5071C28.5471 45.7686 27.4027 46.1688 26.3394 46.692L25.213 45.9071C24.3209 45.2915 23.0412 45.3378 22.2212 46.0225L20.5812 47.3923C19.7612 48.077 19.6711 49.1697 20.374 49.9468L21.3381 51.0088C20.7795 51.8552 20.3379 52.7554 20.0495 53.7019L18.4727 53.8404ZM33.1879 51.6397C36.4589 51.6705 39.0811 53.9713 39.0451 56.7644C39.0091 59.5576 36.3147 61.7967 33.0436 61.766C29.7726 61.7352 27.1504 59.4345 27.1864 56.6412C27.2225 53.8481 29.9168 51.609 33.1879 51.6397Z" fill="#424242"/>
</svg>
