<svg width="116" height="117" viewBox="0 0 116 117" fill="none" xmlns="http://www.w3.org/2000/svg">
<path d="M7.91906 42.5978C8.52426 44.7084 9.36413 46.7436 10.4263 48.6532L7.40032 52.5352C6.41223 53.8041 6.52339 55.6132 7.63499 56.7565L12.8471 62.0581C13.9711 63.2014 15.7496 63.3017 16.9971 62.2967L20.7888 59.2438C22.7403 60.3872 24.8153 61.2791 26.9767 61.9072L27.5448 66.8697C27.7301 68.4778 29.064 69.6838 30.645 69.6838H38.0185C39.5995 69.6838 40.9334 68.4776 41.1186 66.8697L41.6621 62.0831C43.9841 61.4675 46.2073 60.5504 48.2946 59.3569L51.9628 62.3093C53.2103 63.3143 54.9888 63.2012 56.1128 62.0706L61.3249 56.7689C62.4489 55.6257 62.5477 53.8166 61.5596 52.5477L58.7065 48.8667C59.8922 46.7811 60.8185 44.5575 61.4361 42.2333L65.8331 41.7182C67.4141 41.5298 68.5997 40.173 68.5997 38.5649V31.0647C68.5997 29.4566 67.414 28.0998 65.8331 27.9113L61.4978 27.3962C60.9049 25.0972 60.0157 22.8986 58.8795 20.8382L61.5474 17.4085C62.5354 16.1396 62.4243 14.3305 61.3127 13.1873L56.1129 7.89819C54.989 6.75494 53.2104 6.65444 51.963 7.65949L48.6899 10.2978C46.5656 9.02887 44.2929 8.06151 41.9092 7.40823L41.4152 3.09906C41.2299 1.49098 39.896 0.284912 38.3151 0.284912H30.9415C29.3606 0.284912 28.0267 1.49098 27.8414 3.09906L27.3474 7.40823C24.9019 8.07407 22.5675 9.07913 20.3937 10.3983L16.9972 7.65949C15.7497 6.65444 13.9712 6.7675 12.8472 7.89819L7.63511 13.1998C6.51117 14.3431 6.41236 16.1522 7.40044 17.4211L10.2412 21.077C9.10488 23.1624 8.24031 25.3861 7.67216 27.6977L3.12698 28.2254C1.54605 28.4138 0.360352 29.7707 0.360352 31.3787V38.879C0.360352 40.487 1.54605 41.8439 3.12698 42.0323L7.91906 42.5978ZM34.6343 22.3083C41.3533 22.3083 46.8248 27.8737 46.8248 34.7081C46.8248 41.5425 41.3533 47.108 34.6343 47.108C27.9155 47.108 22.4439 41.5425 22.4439 34.7081C22.4439 27.8737 27.9154 22.3083 34.6343 22.3083Z" fill="#424242"/>
<path d="M107.53 44.4447L103.64 41.1029C102.442 40.0727 100.675 40.1229 99.5393 41.2159L97.3902 43.2637C95.5747 42.3717 93.648 41.7436 91.6593 41.3793L91.0544 38.3641C90.7456 36.8063 89.3252 35.7258 87.7687 35.8515L82.6925 36.2912C81.1362 36.4294 79.9135 37.7234 79.8641 39.3189L79.7654 42.3843C77.8138 43.1004 75.9735 44.0803 74.2938 45.3115L71.7249 43.5778C70.4154 42.6984 68.674 42.9496 67.6614 44.1683L64.376 48.1508C63.3631 49.3694 63.4125 51.1659 64.4869 52.3217L66.7349 54.7589C65.9567 56.5428 65.4009 58.4149 65.0799 60.3369L61.8686 61.0027C60.3371 61.3168 59.2749 62.7616 59.3984 64.3447L59.8307 69.5081C59.9666 71.0911 61.2387 72.3348 62.8073 72.3851L66.278 72.498C66.9081 74.1815 67.7355 75.7771 68.7358 77.272L66.7968 80.2495C65.9322 81.5812 66.1793 83.3526 67.3772 84.3827L71.2678 87.7245C72.4659 88.7547 74.232 88.7045 75.3684 87.6115L77.9127 85.1868C79.5801 85.9783 81.3339 86.5687 83.1371 86.9205L83.8412 90.4633C84.15 92.0211 85.5704 93.1016 87.1266 92.9759L92.2029 92.5362C93.7591 92.398 94.9819 91.1041 95.0313 89.5085L95.1424 86.0409C96.9951 85.3751 98.7488 84.4706 100.367 83.3526L103.171 85.237C104.48 86.1165 106.221 85.8652 107.234 84.6466L110.519 80.6892C111.532 79.4706 111.483 77.674 110.408 76.5182L108.148 74.0811C108.976 72.2971 109.581 70.4127 109.926 68.4778L113.014 67.8371C114.546 67.523 115.608 66.0782 115.484 64.4952L115.052 59.3317C114.916 57.7488 113.644 56.505 112.076 56.4548L108.975 56.3543C108.333 54.52 107.469 52.7865 106.394 51.1782L108.086 48.5902C108.975 47.2588 108.728 45.4748 107.53 44.4447ZM88.3988 74.2945C82.9149 74.7721 78.0731 70.6135 77.6162 65.0356C77.1467 59.4576 81.2352 54.5327 86.7188 54.0679C92.2026 53.5905 97.0445 57.749 97.5014 63.3269C97.9708 68.9051 93.8824 73.8298 88.3988 74.2945Z" fill="#424242"/>
<path d="M25.68 88.1898C24.1238 88.3531 22.9258 89.6847 22.9134 91.2803L22.8764 94.4588C22.8517 96.0543 24.0127 97.4111 25.5689 97.6122L27.8662 97.9136C28.249 99.3334 28.7925 100.69 29.4965 101.972L28.0144 103.831C27.0263 105.075 27.1004 106.859 28.1996 108.002L30.3858 110.276C31.485 111.419 33.2389 111.545 34.4863 110.565L36.3265 109.12C37.6233 109.899 38.9944 110.515 40.427 110.942L40.674 113.354C40.8346 114.937 42.1438 116.155 43.7124 116.168L46.8373 116.206C48.4058 116.231 49.7398 115.05 49.9374 113.467L50.2215 111.18C51.7778 110.791 53.26 110.2 54.6679 109.422L56.397 110.841C57.6197 111.846 59.3737 111.771 60.4976 110.653L62.7332 108.429C63.8571 107.311 63.9806 105.527 63.0174 104.258L61.6956 102.512C62.5107 101.13 63.1408 99.6599 63.573 98.1146L65.6233 97.9011C67.1795 97.7377 68.3775 96.406 68.3899 94.8105L68.4269 91.6319C68.4517 90.0365 67.2907 88.6796 65.7345 88.4786L63.7335 88.2148C63.3506 86.6821 62.7826 85.1996 62.0415 83.8177L63.289 82.2598C64.2771 81.0161 64.2029 79.2321 63.1037 78.0889L60.9177 75.815C59.8185 74.6716 58.0644 74.546 56.817 75.526L55.3225 76.6944C53.9146 75.8275 52.4076 75.1617 50.8268 74.7094L50.6291 72.737C50.4685 71.1539 49.1594 69.9354 47.5907 69.9228L44.4659 69.8852C42.8973 69.86 41.5634 71.041 41.3657 72.6239L41.1187 74.5839C39.4885 75.0109 37.9199 75.6643 36.4625 76.5185L34.9186 75.237C33.6958 74.232 31.9419 74.3075 30.8179 75.4255L28.5701 77.6619C27.4461 78.7799 27.3226 80.5639 28.286 81.8327L29.6075 83.5665C28.8418 84.9485 28.2366 86.4182 27.8413 87.9636L25.68 88.1898ZM45.8492 84.5966C50.3326 84.6468 53.9267 88.4033 53.8774 92.9637C53.828 97.5242 50.1349 101.18 45.6515 101.13C41.1681 101.08 37.5741 97.3232 37.6233 92.7626C37.6729 88.2023 41.3658 84.5465 45.8492 84.5966Z" fill="#424242"/>
</svg>
