<svg width="71" height="65" viewBox="0 0 71 65" fill="none" xmlns="http://www.w3.org/2000/svg">
<path d="M71 47.988L66.156 35.1007L56.8646 43.933L71 47.988Z" fill="#424242"/>
<path d="M27.7957 18.4121L38.3523 8.74756L41.2029 11.3572L30.6462 21.0218L27.7957 18.4121Z" fill="#424242"/>
<path d="M53.3412 41.7969L63.7011 31.9491L44.1541 14.0505L33.5964 23.7171L53.3412 41.7969Z" fill="#424242"/>
<path d="M24.8537 15.7116L35.4114 6.04515L30.9925 1.99889C28.082 -0.666361 23.3458 -0.666234 20.4352 1.99889C19.0254 3.29001 18.2487 5.00654 18.2487 6.83238C18.2487 8.65822 19.0252 10.3749 20.4352 11.6659L24.8537 15.7116Z" fill="#424242"/>
<path d="M0 65.0059H8.16514V59.1381H12.3315V65.0059H16.4985V59.1381H20.6649V65.0059H24.8317V59.1381H28.9981V65.0059H33.165V59.1381H37.3314V65.0059H41.4984V59.1381H45.6648V65.0059H49.8317V59.1381H53.9981V65.0059H70.986L0 0.0196533V65.0059ZM13.0687 28.5729L39.831 53.1048H13.0687V28.5729Z" fill="#424242"/>
</svg>
