<svg width="117" height="115" viewBox="0 0 117 115" fill="none" xmlns="http://www.w3.org/2000/svg">
<path d="M116.517 84.9017L108.605 62.1012L93.4277 77.7275L116.517 84.9017Z" fill="#424242"/>
<path d="M45.9463 32.5754L63.1898 15.4766L67.8459 20.0936L50.6024 37.1925L45.9463 32.5754Z" fill="#424242"/>
<path d="M87.6725 73.9484L104.595 56.5254L72.666 24.8586L55.4209 41.9611L87.6725 73.9484Z" fill="#424242"/>
<path d="M41.1405 27.7975L58.3856 10.6953L51.1676 3.5365C46.4136 -1.17895 38.6774 -1.17872 33.9232 3.5365C31.6202 5.82078 30.3516 8.85773 30.3516 12.0881C30.3516 15.3184 31.62 18.3556 33.9232 20.6396L41.1405 27.7975Z" fill="#424242"/>
<path d="M0.543945 115.001H13.8811V104.62H20.6866V115.001H27.493V104.62H34.2985V115.001H41.1046V104.62H47.9101V115.001H54.7165V104.62H61.522V115.001H68.3284V104.62H75.1339V115.001H81.9403V104.62H88.7458V115.001H116.494L0.543945 0.0252686V115.001ZM21.8907 50.5426L65.6049 93.9453H21.8907V50.5426Z" fill="#424242"/>
</svg>
