<svg width="212" height="211" viewBox="0 0 212 211" fill="none" xmlns="http://www.w3.org/2000/svg">
<path fill-rule="evenodd" clip-rule="evenodd" d="M85.1183 97.6179H124.611V112.641H85.1183V132.768H127.738L153.589 106.917V103.852L127.229 77.4919H85.1183V97.6179ZM0.645508 50.2793H210.226L167.277 93.2285H164.212L133.452 62.4683H0.645508V50.2793ZM210.226 71.5264V139.243L177.9 106.917V103.852L210.226 71.5264ZM210.226 160.489H42.882V77.4919H70.0946V147.791H79.0238H85.1183H133.961L164.212 117.54H167.277L210.226 160.489ZM27.8581 160.489H0.645508V77.4919H27.8581V160.489Z" fill="#3A3A3A"/>
<path fill-rule="evenodd" clip-rule="evenodd" d="M34.59 0.967102H9.61106H1.74316V39.4806H9.61106V8.44968H26.7221V39.4806H34.59V0.967102ZM75.1274 0.967102H58.9515V39.4806H66.8193V27.0461H75.1274C83.3802 27.0461 88.8269 21.9843 88.8269 13.8965C88.8269 5.80868 83.3802 0.967102 75.1274 0.967102ZM74.7971 19.5635H66.8193V8.44968H74.7971C78.8685 8.44968 80.8494 10.5955 80.8494 14.0067C80.8494 17.3627 78.8685 19.5635 74.7971 19.5635ZM129.199 0.306885C117.866 0.306885 109.172 8.88989 109.172 20.2237C109.172 31.5577 117.866 40.1408 129.199 40.1408C140.533 40.1408 149.281 31.5577 149.281 20.2237C149.281 8.88989 140.533 0.306885 129.199 0.306885ZM129.199 7.78949C136.132 7.78949 141.304 13.0163 141.304 20.2237C141.304 27.4313 136.132 32.6581 129.199 32.6581C122.267 32.6581 117.095 27.4313 117.095 20.2237C117.095 13.0163 122.267 7.78949 129.199 7.78949ZM199.887 0.967102L190.039 10.9484L180.136 0.967102H171.112V39.4806H178.98V11.8609L189.654 23.2726H190.369L201.098 11.8609V39.4806H208.966V0.967102H199.887ZM22.4307 210.477C31.619 210.477 38.7713 204.81 41.0271 196.612H32.6091C30.7935 200.573 27.1073 202.994 22.3755 202.994C15.2781 202.994 10.4365 197.767 10.4365 190.56C10.4365 183.352 15.2781 178.126 22.3755 178.126C27.1073 178.126 30.7935 180.546 32.6091 184.508H41.0271C38.7713 176.31 31.619 170.643 22.4307 170.643C10.9314 170.643 2.51366 179.226 2.51366 190.56C2.51366 201.894 10.9314 210.477 22.4307 210.477ZM145.375 170.643C135.306 170.643 127.273 177.41 125.623 186.874H120.176V171.303H112.308V209.817H120.176V194.356H125.623C127.329 203.764 135.362 210.477 145.375 210.477C156.709 210.477 165.402 201.894 165.402 190.56C165.402 179.226 156.709 170.643 145.375 170.643ZM145.375 202.994C138.443 202.994 133.271 197.767 133.271 190.56C133.271 183.352 138.443 178.126 145.375 178.126C152.307 178.126 157.479 183.352 157.424 190.56C157.479 197.767 152.307 202.994 145.375 202.994ZM205.774 189.625C208.635 188.139 210.451 185.223 210.451 181.867C210.451 175.32 204.784 170.643 196.366 170.643C188.278 170.643 182.281 174.714 181.456 182.857H189.379C190.149 179.281 192.35 178.126 196.091 178.126C200.713 178.126 202.473 180.161 202.473 182.912C202.473 185.773 200.217 186.764 196.366 186.764H191.799V193.641H197.356C202.198 193.641 203.684 195.292 203.684 197.932C203.684 201.069 201.703 202.994 196.751 202.994C192.35 202.994 189.709 201.619 189.049 197.822H181.071C181.731 206.35 188.388 210.477 196.916 210.477C205.939 210.477 211.661 206.075 211.661 198.703C211.661 194.356 209.406 191.11 205.774 189.625ZM75.6223 170.643C64.2885 170.643 55.5952 179.226 55.5952 190.56C55.5952 201.894 64.2885 210.477 75.6223 210.477C86.9563 210.477 95.7043 201.894 95.7043 190.56C95.7043 179.226 86.9563 170.643 75.6223 170.643ZM75.6223 178.126C82.5547 178.126 87.7265 183.352 87.7265 190.56C87.7265 197.767 82.5547 202.994 75.6223 202.994C68.6899 202.994 63.5181 197.767 63.5181 190.56C63.5181 183.352 68.6899 178.126 75.6223 178.126Z" fill="#3A3A3A"/>
</svg>
