<svg width="39" height="39" viewBox="0 0 39 39" fill="none" xmlns="http://www.w3.org/2000/svg">
<g clip-path="url(#clip0)">
<path d="M21.5172 32.5195V29.8384H0V32.5303C0 34.9682 1.96996 36.9828 4.40812 36.9828H23.6858C23.501 36.8147 23.3227 36.6673 23.1543 36.4985C22.1013 35.4423 21.5123 34.0108 21.5172 32.5195Z" fill="#FF8541"/>
<path d="M15.235 16.2659L18.3574 18.4096L21.4919 16.2659C22.3492 15.6812 23.0301 14.3616 23.0301 13.3241V8.89431L18.3652 6.58716L13.7004 8.8884V13.3241C13.7004 14.3613 14.3774 15.6812 15.235 16.2659ZM15.9379 12.0791C16.1687 11.8506 16.5414 11.8522 16.7699 12.0834L17.7076 13.0302L19.9645 10.7737C20.1944 10.5438 20.567 10.5438 20.7968 10.774C21.0267 11.0038 21.0263 11.3765 20.7965 11.6063L18.1216 14.2825C18.0113 14.3931 17.8619 14.4562 17.7056 14.4568H17.7043C17.5474 14.4558 17.3973 14.3925 17.2877 14.2802L15.9337 12.9124C15.7051 12.6809 15.7071 12.3083 15.9379 12.0791Z" fill="#FF8541"/>
<path d="M35.8812 2.01733H35.8625C34.1339 2.01733 32.6961 3.46164 32.6961 5.19127V10.5906H39V5.18077C39.0079 3.44785 37.6141 2.03408 35.8812 2.01733Z" fill="#FF8541"/>
<path d="M9.03291 2.01733C7.39817 2.01733 6.06779 3.32999 6.06779 4.9401L5.8941 28.6617H22.1056C22.4356 28.6749 22.6959 28.947 22.6939 29.2777V32.5196C22.688 34.9705 24.6639 36.9651 27.1145 36.9828H27.1293C29.5711 36.9651 31.5361 34.9715 31.5194 32.5298V5.19226C31.5194 3.95545 32.0759 2.85785 32.9121 2.01733L9.03291 2.01733ZM12.5237 8.52149C12.5161 8.3002 12.6373 8.09434 12.8346 7.99321L18.1036 5.4037C18.2655 5.32359 18.4552 5.32359 18.6171 5.4037L23.8956 8.00044C24.0929 8.10156 24.2141 8.3071 24.2069 8.52872V13.3243C24.2069 14.7515 23.3358 16.4342 22.1561 17.2382L18.6995 19.6084C18.6027 19.6751 18.4877 19.7109 18.3702 19.7109C18.253 19.7109 18.1387 19.6754 18.0425 19.6084L14.5757 17.2382C13.3967 16.4338 12.5237 14.7512 12.5237 13.3243V8.52149ZM26.7284 25.9721H10.5905C10.2655 25.9721 10.0021 25.7088 10.0021 25.3837C10.0021 25.0587 10.2655 24.7954 10.5905 24.7954H26.7284C27.0535 24.7954 27.3168 25.0587 27.3168 25.3837C27.3168 25.7088 27.0535 25.9721 26.7284 25.9721ZM26.7284 22.8622H10.5905C10.2655 22.8622 10.0021 22.5988 10.0021 22.2738C10.0021 21.9488 10.2655 21.6854 10.5905 21.6854H26.7284C27.0535 21.6854 27.3168 21.9488 27.3168 22.2738C27.3168 22.5988 27.0535 22.8622 26.7284 22.8622Z" fill="#FF8541"/>
</g>
<defs>
<clipPath id="clip0">
<rect width="39" height="39" fill="white"/>
</clipPath>
</defs>
</svg>
