<svg width="47" height="46" viewBox="0 0 47 46" fill="none" xmlns="http://www.w3.org/2000/svg">
<g clip-path="url(#clip0)">
<path d="M23.5962 8.07826C25.8116 8.07826 27.6074 6.28237 27.6074 4.06702C27.6074 1.85167 25.8116 0.0557785 23.5962 0.0557785C21.3809 0.0557785 19.585 1.85167 19.585 4.06702C19.585 6.28237 21.3809 8.07826 23.5962 8.07826Z" fill="#FF8541"/>
<path d="M25.151 9.04227C25.1321 9.04176 25.1132 9.04125 25.0942 9.04094H22.0992C19.0278 9.09868 16.5849 11.6354 16.6426 14.7068C16.6429 14.7257 16.6434 14.7447 16.6439 14.7636V15.6193C16.6439 16.0472 16.8043 16.5285 17.2857 16.5285H29.9076C30.389 16.5285 30.5494 16.0472 30.5494 15.6193V14.7636C30.6385 11.693 28.2216 9.13143 25.151 9.04227Z" fill="#FF8541"/>
<path d="M6.21428 26.6903C6.65733 26.6903 7.01655 26.331 7.01655 25.888C7.00539 20.854 9.28925 16.0894 13.2205 12.9451C13.5564 12.7039 13.6333 12.2361 13.3921 11.9002C13.3724 11.8727 13.3508 11.8466 13.3275 11.822C13.0457 11.4847 12.5448 11.437 12.2044 11.715C7.91023 15.1664 5.41231 20.3787 5.41211 25.888C5.41211 26.3311 5.77122 26.6903 6.21428 26.6903Z" fill="#FF8541"/>
<path d="M28.8918 41.6119C25.4694 42.7346 21.778 42.7346 18.3557 41.6119C17.9341 41.4755 17.4819 41.7065 17.3453 42.128C17.3433 42.1342 17.3413 42.1405 17.3395 42.1467C17.2302 42.5726 17.4615 43.0118 17.8743 43.1629C19.7224 43.7637 21.6535 44.0705 23.5969 44.0722C25.5798 44.0741 27.5495 43.7489 29.4265 43.1095C29.8201 42.9062 29.9745 42.4222 29.7712 42.0286C29.6054 41.7075 29.2452 41.5369 28.8918 41.6119Z" fill="#FF8541"/>
<path d="M33.1595 12.3498C33.1629 12.3522 33.1664 12.3545 33.1699 12.3569C37.5554 15.4694 40.1655 20.5102 40.1761 25.8881C40.1761 26.3312 40.5354 26.6904 40.9784 26.6904C41.4215 26.6904 41.7807 26.3312 41.7807 25.8881C41.7659 19.9789 38.8973 14.4409 34.0791 11.0199C33.7051 10.7939 33.2209 10.8862 32.956 11.2338C32.7039 11.5982 32.7951 12.0979 33.1595 12.3498Z" fill="#FF8541"/>
<path d="M7.55128 37.4938C9.76663 37.4938 11.5625 35.6979 11.5625 33.4826C11.5625 31.2672 9.76663 29.4713 7.55128 29.4713C5.33593 29.4713 3.54004 31.2672 3.54004 33.4826C3.54004 35.6979 5.33593 37.4938 7.55128 37.4938Z" fill="#FF8541"/>
<path d="M9.10612 38.4578C9.08718 38.4573 9.06824 38.4568 9.0493 38.4565H6.05428C2.98289 38.5142 0.539847 41.0509 0.597686 44.1223C0.597993 44.1413 0.598505 44.1602 0.599017 44.1791V45.0348C0.599017 45.4627 0.759429 45.9441 1.24077 45.9441H13.8627C14.3441 45.9441 14.5045 45.4627 14.5045 45.0348V44.1791C14.5937 41.1085 12.1768 38.547 9.10612 38.4578Z" fill="#FF8541"/>
<path d="M39.6411 37.4938C41.8565 37.4938 43.6524 35.6979 43.6524 33.4826C43.6524 31.2672 41.8565 29.4713 39.6411 29.4713C37.4258 29.4713 35.6299 31.2672 35.6299 33.4826C35.6299 35.6979 37.4258 37.4938 39.6411 37.4938Z" fill="#FF8541"/>
<path d="M41.1959 38.4578C41.177 38.4573 41.1581 38.4568 41.1391 38.4565H38.1441C35.0727 38.5142 32.6298 41.0509 32.6875 44.1223C32.6878 44.1413 32.6883 44.1602 32.6889 44.1791V45.0348C32.6889 45.4627 32.8493 45.9441 33.3306 45.9441H45.9526C46.434 45.9441 46.5944 45.4627 46.5944 45.0348V44.1791C46.6835 41.1085 44.2666 38.547 41.1959 38.4578Z" fill="#FF8541"/>
</g>
<defs>
<clipPath id="clip0">
<rect width="46" height="46" fill="white" transform="translate(0.59668)"/>
</clipPath>
</defs>
</svg>
