<svg width="39" height="39" viewBox="0 0 39 39" fill="none" xmlns="http://www.w3.org/2000/svg">
<path d="M19.5 6.84904C21.3782 6.84904 22.9008 5.32643 22.9008 3.4482C22.9008 1.56997 21.3782 0.0473633 19.5 0.0473633C17.6217 0.0473633 16.0991 1.56997 16.0991 3.4482C16.0991 5.32643 17.6217 6.84904 19.5 6.84904Z" fill="#FF8541"/>
<path d="M20.8178 7.66641C20.8017 7.66598 20.7857 7.66554 20.7696 7.66528H18.2304C15.6264 7.71423 13.5552 9.86493 13.6041 12.4689C13.6044 12.485 13.6048 12.501 13.6052 12.5171V13.2426C13.6052 13.6054 13.7413 14.0135 14.1493 14.0135H24.8506C25.2587 14.0135 25.3947 13.6054 25.3947 13.2426V12.5171C25.4702 9.91379 23.4211 7.74201 20.8178 7.66641Z" fill="#FF8541"/>
<path d="M4.76312 22.6288C5.13875 22.6288 5.44331 22.3243 5.44331 21.9486C5.43385 17.6807 7.37016 13.6411 10.7032 10.9753C10.988 10.7708 11.0532 10.3742 10.8487 10.0894C10.8319 10.0661 10.8136 10.044 10.7939 10.0231C10.555 9.73715 10.1303 9.6967 9.84172 9.93243C6.20099 12.8586 4.0832 17.2777 4.08302 21.9486C4.08302 22.3243 4.38749 22.6288 4.76312 22.6288Z" fill="#FF8541"/>
<path d="M23.9891 35.2798C21.0875 36.2317 17.9579 36.2317 15.0563 35.2798C14.6989 35.1641 14.3155 35.36 14.1997 35.7173C14.198 35.7226 14.1963 35.7279 14.1947 35.7332C14.1021 36.0943 14.2982 36.4667 14.6481 36.5948C16.2151 37.1042 17.8523 37.3643 19.5 37.3657C21.1811 37.3673 22.8511 37.0916 24.4425 36.5495C24.7762 36.3771 24.9071 35.9668 24.7347 35.6331C24.5941 35.3608 24.2888 35.2162 23.9891 35.2798Z" fill="#FF8541"/>
<path d="M27.6078 10.4707C27.6107 10.4726 27.6136 10.4746 27.6166 10.4766C31.3347 13.1155 33.5477 17.3892 33.5567 21.9487C33.5567 22.3244 33.8612 22.6289 34.2369 22.6289C34.6125 22.6289 34.9171 22.3244 34.9171 21.9487C34.9046 16.9388 32.4725 12.2435 28.3875 9.34306C28.0703 9.15151 27.6598 9.22971 27.4353 9.52445C27.2215 9.83343 27.2988 10.2571 27.6078 10.4707Z" fill="#FF8541"/>
<path d="M5.8967 31.7882C7.77493 31.7882 9.29754 30.2656 9.29754 28.3874C9.29754 26.5092 7.77493 24.9866 5.8967 24.9866C4.01847 24.9866 2.49586 26.5092 2.49586 28.3874C2.49586 30.2656 4.01847 31.7882 5.8967 31.7882Z" fill="#FF8541"/>
<path d="M7.21454 32.6056C7.19848 32.6052 7.18243 32.6048 7.16637 32.6045H4.62711C2.02311 32.6534 -0.0481689 34.8041 0.000868303 37.4081C0.00112868 37.4242 0.00156263 37.4403 0.00199659 37.4563V38.1818C0.00199659 38.5446 0.137999 38.9527 0.546092 38.9527H11.2473C11.6554 38.9527 11.7914 38.5446 11.7914 38.1818V37.4563C11.8671 34.8529 9.81794 32.6812 7.21454 32.6056Z" fill="#FF8541"/>
<path d="M33.1032 31.7882C34.9814 31.7882 36.504 30.2656 36.504 28.3874C36.504 26.5092 34.9814 24.9866 33.1032 24.9866C31.225 24.9866 29.7024 26.5092 29.7024 28.3874C29.7024 30.2656 31.225 31.7882 33.1032 31.7882Z" fill="#FF8541"/>
<path d="M34.421 32.6056C34.4049 32.6052 34.3889 32.6048 34.3728 32.6045H31.8336C29.2296 32.6534 27.1584 34.8041 27.2073 37.4081C27.2076 37.4242 27.208 37.4403 27.2084 37.4563V38.1818C27.2084 38.5446 27.3444 38.9527 27.7525 38.9527H38.4538C38.8619 38.9527 38.9979 38.5446 38.9979 38.1818V37.4563C39.0735 34.8529 37.0244 32.6812 34.421 32.6056Z" fill="#FF8541"/>
</svg>
