<svg width="39" height="39" viewBox="0 0 39 39" fill="none" xmlns="http://www.w3.org/2000/svg">
<path d="M38.7118 5.11315C38.7118 5.02094 38.6196 4.92873 38.5735 4.92873C38.4813 4.92873 38.3891 4.92873 38.343 4.97483L34.1936 9.03204L29.9058 4.74431L34.0553 0.594896C34.1475 0.502687 34.1475 0.364373 34.0553 0.272164C34.0092 0.22606 34.0092 0.22606 33.9631 0.22606C30.8279 -0.46551 27.6006 0.456583 25.2493 2.6235C23.0363 4.83652 23.5895 7.41838 23.9584 9.12425C24.0045 9.35477 24.0506 9.6314 24.0967 9.81582C22.6213 11.3834 11.464 22.5868 9.80424 24.1544C9.61982 24.1082 9.4354 24.0621 9.20488 24.016C7.49901 23.6011 5.00936 23.0017 2.70413 25.2609C0.53721 27.5661 -0.384882 30.7934 0.306687 33.8824C0.352792 34.0207 0.445001 34.0668 0.583315 34.0668C0.629419 34.0668 0.675524 34.0207 0.675524 34.0207L4.82494 29.9635L9.11267 34.2513L4.96325 38.4007C4.87104 38.4929 4.87104 38.6312 4.96325 38.7234C5.00936 38.7695 5.00936 38.7695 5.05546 38.7695C5.70093 38.9078 6.3925 39 7.08406 39C9.57371 39 11.9712 38.0779 13.7692 36.326C15.9823 34.1129 15.429 31.5311 15.0602 29.8252C15.0141 29.5947 14.968 29.3181 14.9219 29.1337C16.3972 27.5661 27.5545 16.3627 29.2143 14.7951L29.8136 14.9334C31.4734 15.3484 34.0553 15.9938 36.3144 13.7347C38.4813 11.4295 39.3573 8.20216 38.7118 5.11315Z" fill="#FF8541"/>
</svg>
