<svg width="39" height="39" viewBox="0 0 39 39" fill="none" xmlns="http://www.w3.org/2000/svg">
<g clip-path="url(#clip0)">
<path d="M19.878 10.9127C20.9802 10.9127 21.8773 9.79706 21.8773 8.42553C21.8773 7.05439 20.9802 5.93872 19.878 5.93872C18.7754 5.93872 17.8784 7.05439 17.8784 8.42553C17.8784 9.7963 18.7754 10.9127 19.878 10.9127Z" fill="#FF8541"/>
<path d="M12.5497 16.7775L12.5478 16.8056C12.4775 18.0334 13.1744 19.1875 14.3231 19.7461L14.3381 19.7534C15.216 20.1741 15.9348 20.8664 16.3885 21.7277L16.3966 21.7423C17.007 22.8676 18.2145 23.536 19.4919 23.4561L19.5196 23.4546C19.6068 23.45 19.694 23.4477 19.7808 23.4477C20.6775 23.4469 21.5561 23.7012 22.3137 24.1815C23.4183 24.8722 24.8205 24.8722 25.9254 24.1815C26.7583 23.6536 27.7353 23.3997 28.7196 23.455L28.7469 23.4565C30.0239 23.5372 31.2314 22.8687 31.8415 21.7438L31.8476 21.7323C32.3021 20.8683 33.0228 20.1741 33.903 19.7522L33.9149 19.7465C35.064 19.1883 35.7609 18.0342 35.6906 16.8059L35.6891 16.7791C35.6364 15.8098 35.9057 14.8501 36.4555 14.0498C37.1578 13.0256 37.1578 11.6748 36.4555 10.6506C35.9057 9.85033 35.636 8.89064 35.6883 7.92135L35.6898 7.89369C35.7601 6.66585 35.0632 5.51176 33.9145 4.95278L33.9015 4.94663C33.0228 4.52557 32.3033 3.83327 31.8491 2.97155L31.8392 2.95234C31.2583 1.84628 30.0439 1.17473 28.7461 1.24312L28.7181 1.24465C27.7342 1.29921 26.7576 1.04526 25.9247 0.517781C24.8198 -0.172594 23.4179 -0.172594 22.313 0.517781C21.4801 1.04526 20.5035 1.29921 19.5188 1.24427L19.4919 1.24273C18.1942 1.17396 16.9794 1.84628 16.397 2.95503L16.3897 2.96963C15.9352 3.83212 15.2148 4.52557 14.335 4.94702L14.3216 4.95355C13.1902 5.4841 12.4902 6.64472 12.5478 7.89292L12.5494 7.91982C12.602 8.88911 12.3323 9.84879 11.7829 10.6494C11.0806 11.6737 11.0806 13.0244 11.7829 14.0487C12.3323 14.8489 12.602 15.8082 12.5497 16.7775ZM31.737 16.2731C31.737 18.4038 30.2221 20.1368 28.3604 20.1368C26.4986 20.1368 24.9842 18.4038 24.9842 16.2731C24.9842 14.1428 26.4986 12.4094 28.3604 12.4094C30.2221 12.4094 31.737 14.1424 31.737 16.2735V16.2731ZM28.1956 4.51904C28.3969 4.19632 28.8218 4.09797 29.1445 4.29967C29.4672 4.50098 29.5652 4.92589 29.3639 5.2486L20.0432 20.1802C19.8419 20.5025 19.4174 20.6009 19.0947 20.3996C18.7723 20.1983 18.674 19.7734 18.8753 19.451L28.1956 4.51904ZM19.878 4.56168C21.7398 4.56168 23.2542 6.29511 23.2542 8.4254C23.2542 10.5561 21.7398 12.2895 19.878 12.2895C18.0163 12.2895 16.5014 10.5561 16.5014 8.4254C16.5014 6.29511 18.0163 4.56168 19.878 4.56168Z" fill="#FF8541"/>
<path d="M26.3611 16.2737C26.3611 17.6452 27.2582 18.7609 28.3604 18.7609C29.463 18.7609 30.3601 17.6452 30.3601 16.2737C30.3601 14.9025 29.463 13.7869 28.3604 13.7869C27.2578 13.7869 26.3611 14.9018 26.3611 16.2737Z" fill="#FF8541"/>
<path d="M36.1243 29.0611C36.119 29.0638 36.1136 29.0664 36.1082 29.0691L29.7181 32.0884C29.7865 32.4426 29.8161 32.803 29.8065 33.1634C29.7961 33.536 29.4914 33.8326 29.1188 33.8326H29.0988L19.7463 33.5752C19.3659 33.5648 19.0663 33.2483 19.0766 32.8679C19.087 32.488 19.404 32.1879 19.7839 32.1983L28.3823 32.4349C28.0984 30.7676 26.6761 29.5325 24.985 29.4856L19.2956 29.3288C18.1719 29.2966 17.0701 29.0119 16.0712 28.4963L15.4926 28.1963C12.6489 26.7149 9.22313 26.9077 6.56382 28.6992L6.33639 36.9764L7.31413 36.4531C8.28573 35.9306 9.42291 35.8061 10.4844 36.1062L20.1404 38.8166C22.0018 39.1977 23.9358 38.9814 25.6669 38.1988L39.0441 29.5455C38.2811 28.7637 37.099 28.5678 36.1243 29.0611Z" fill="#FF8541"/>
<path d="M0.0530624 38.4141L0.391911 26.0991L5.25489 26.2328L4.91604 38.5478L0.0530624 38.4141Z" fill="#FF8541"/>
</g>
<defs>
<clipPath id="clip0">
<rect width="39" height="39" fill="white"/>
</clipPath>
</defs>
</svg>
