<svg width="47" height="46" viewBox="0 0 47 46" fill="none" xmlns="http://www.w3.org/2000/svg">
<g clip-path="url(#clip0)">
<path d="M46.7461 23.0259L42.8092 17.8975L43.6898 11.5259L37.6808 9.14303L35.2979 3.13402L28.9263 4.01465L23.7461 0.0259094L18.6177 3.96285L12.2461 3.08222L9.86321 9.09123L3.8542 11.4741L4.73483 17.8457L0.746094 23.0259L4.68303 28.1543L3.8024 34.5259L9.81141 36.9088L12.1943 42.9178L18.5659 42.0372L23.6943 45.9741L28.8227 42.0372L35.1943 42.9178L37.5772 36.9088L43.5862 34.4741L42.7056 28.1025L46.7461 23.0259ZM21.8812 30.4854L14.2146 24.1656L15.8722 22.1453L21.5704 26.8074L31.3092 15.5665L33.2776 17.2759L21.8812 30.4854Z" fill="#FF8541"/>
</g>
<defs>
<clipPath id="clip0">
<rect width="46" height="46" fill="white" transform="translate(0.746094)"/>
</clipPath>
</defs>
</svg>
