<svg width="47" height="46" viewBox="0 0 47 46" fill="none" xmlns="http://www.w3.org/2000/svg">
<g clip-path="url(#clip0)">
<path d="M45.7144 6.03084C45.7144 5.92208 45.6057 5.81332 45.5513 5.81332C45.4425 5.81332 45.3338 5.81332 45.2794 5.8677L40.3852 10.6531L35.3279 5.5958L40.2221 0.701619C40.3308 0.59286 40.3308 0.42972 40.2221 0.320961C40.1677 0.266581 40.1677 0.266581 40.1133 0.266581C36.4155 -0.549116 32.6089 0.53848 29.8355 3.09433C27.2253 5.70456 27.8778 8.74983 28.3129 10.7619C28.3673 11.0338 28.4216 11.3601 28.476 11.5776C26.7359 13.4265 13.576 26.6408 11.6183 28.4897C11.4008 28.4353 11.1832 28.3809 10.9113 28.3266C8.8993 27.8371 5.96279 27.1302 3.2438 29.7948C0.687947 32.5138 -0.399649 36.3204 0.416048 39.9638C0.470428 40.127 0.579188 40.1814 0.742327 40.1814C0.796707 40.1814 0.851087 40.127 0.851087 40.127L5.74527 35.3416L10.8026 40.3989L5.90841 45.2931C5.79965 45.4018 5.79965 45.565 5.90841 45.6737C5.96279 45.7281 5.96279 45.7281 6.01717 45.7281C6.77848 45.8912 7.59418 46 8.40988 46C11.3464 46 14.1741 44.9124 16.295 42.846C18.9052 40.2357 18.2526 37.1905 17.8176 35.1784C17.7632 34.9065 17.7088 34.5802 17.6544 34.3627C19.3946 32.5138 32.5545 19.2995 34.5122 17.4506L35.2191 17.6137C37.1768 18.1032 40.2221 18.8645 42.8867 16.1999C45.4425 13.4809 46.4757 9.67429 45.7144 6.03084Z" fill="#FF8541"/>
</g>
<defs>
<clipPath id="clip0">
<rect width="46" height="46" fill="white" transform="translate(0.0546875)"/>
</clipPath>
</defs>
</svg>
