<svg width="47" height="46" viewBox="0 0 47 46" fill="none" xmlns="http://www.w3.org/2000/svg">
<g clip-path="url(#clip0)">
<path d="M23.8918 12.8714C25.1918 12.8714 26.2499 11.5555 26.2499 9.93777C26.2499 8.32052 25.1918 7.00461 23.8918 7.00461C22.5913 7.00461 21.5332 8.32052 21.5332 9.93777C21.5332 11.5546 22.5913 12.8714 23.8918 12.8714Z" fill="#FF8541"/>
<path d="M15.2484 19.789L15.2461 19.8221C15.1632 21.2703 15.9852 22.6315 17.3401 23.2904L17.3577 23.299C18.3932 23.7952 19.241 24.6117 19.7761 25.6277L19.7856 25.6449C20.5057 26.9721 21.9299 27.7606 23.4366 27.6663L23.4692 27.6645C23.5721 27.6591 23.6749 27.6564 23.7773 27.6564C24.835 27.6555 25.8713 27.9554 26.7649 28.5219C28.0676 29.3366 29.7216 29.3366 31.0248 28.5219C32.0072 27.8992 33.1596 27.5997 34.3205 27.665L34.3527 27.6668C35.8589 27.7619 37.2831 26.9735 38.0027 25.6467L38.01 25.6331C38.546 24.614 39.3961 23.7952 40.4342 23.2976L40.4483 23.2908C41.8036 22.6324 42.6256 21.2712 42.5427 19.8225L42.5409 19.7908C42.4788 18.6475 42.7964 17.5156 43.4449 16.5717C44.2732 15.3636 44.2732 13.7704 43.4449 12.5623C42.7964 11.6185 42.4783 10.4865 42.54 9.34325L42.5418 9.31062C42.6247 7.86239 41.8027 6.50117 40.4478 5.84185L40.4324 5.8346C39.3961 5.33796 38.5474 4.52141 38.0118 3.50502L38 3.48236C37.3148 2.17778 35.8825 1.3857 34.3518 1.46635L34.3187 1.46817C33.1582 1.53251 32.0063 1.23299 31.0239 0.610831C29.7207 -0.203458 28.0672 -0.203458 26.764 0.610831C25.7816 1.23299 24.6297 1.53251 23.4683 1.46771L23.4366 1.4659C21.9059 1.38479 20.4731 2.17778 19.7861 3.48554L19.7775 3.50276C19.2414 4.52005 18.3918 5.33796 17.3541 5.83506L17.3382 5.84276C16.0038 6.46854 15.1781 7.83747 15.2461 9.30972L15.2479 9.34144C15.31 10.4847 14.9919 11.6166 14.3439 12.561C13.5156 13.769 13.5156 15.3623 14.3439 16.5703C14.9919 17.5142 15.31 18.6457 15.2484 19.789ZM37.8794 19.194C37.8794 21.7071 36.0927 23.7512 33.8968 23.7512C31.7009 23.7512 29.9146 21.7071 29.9146 19.194C29.9146 16.6814 31.7009 14.6368 33.8968 14.6368C36.0927 14.6368 37.8794 16.6809 37.8794 19.1945V19.194ZM33.7024 5.33026C33.9399 4.94963 34.441 4.83362 34.8217 5.07152C35.2023 5.30896 35.3179 5.81013 35.0804 6.19077L24.0868 23.8024C23.8494 24.1826 23.3487 24.2986 22.968 24.0612C22.5878 23.8237 22.4718 23.3225 22.7093 22.9424L33.7024 5.33026ZM23.892 5.38056C26.0879 5.38056 27.8742 7.42512 27.8742 9.93777C27.8742 12.4509 26.0879 14.4954 23.892 14.4954C21.6961 14.4954 19.9093 12.4509 19.9093 9.93777C19.9093 7.42512 21.6961 5.38056 23.892 5.38056Z" fill="#FF8541"/>
<path d="M31.5391 19.1945C31.5391 20.8122 32.5971 22.1281 33.8972 22.1281C35.1977 22.1281 36.2558 20.8122 36.2558 19.1945C36.2558 17.5772 35.1977 16.2613 33.8972 16.2613C32.5967 16.2613 31.5391 17.5763 31.5391 19.1945Z" fill="#FF8541"/>
<path d="M43.0544 34.2772C43.0481 34.2804 43.0417 34.2835 43.0354 34.2867L35.4984 37.8479C35.579 38.2657 35.6139 38.6907 35.6026 39.1158C35.5903 39.5553 35.231 39.9051 34.7915 39.9051H34.7679L23.7367 39.6015C23.2881 39.5893 22.9346 39.2159 22.9469 38.7673C22.9591 38.3192 23.333 37.9653 23.7811 37.9775L33.9228 38.2566C33.5879 36.29 31.9104 34.8332 29.9157 34.7779L23.2052 34.593C21.8797 34.555 20.5801 34.2192 19.402 33.6111L18.7196 33.2572C15.3654 31.5099 11.3248 31.7373 8.18818 33.8503L7.91992 43.6132L9.07316 42.996C10.2191 42.3797 11.5604 42.2329 12.8125 42.5868L24.2016 45.7837C26.3971 46.2332 28.6782 45.9781 30.72 45.0551L46.4983 34.8486C45.5983 33.9265 44.204 33.6953 43.0544 34.2772Z" fill="#FF8541"/>
<path d="M0.508789 45.3088L0.908457 30.7835L6.64428 30.9412L6.24461 45.4665L0.508789 45.3088Z" fill="#FF8541"/>
</g>
<defs>
<clipPath id="clip0">
<rect width="46" height="46" fill="white" transform="translate(0.446289)"/>
</clipPath>
</defs>
</svg>
