<svg width="39" height="39" viewBox="0 0 39 39" fill="none" xmlns="http://www.w3.org/2000/svg">
<path d="M39 19.522L35.6622 15.174L36.4088 9.77197L31.3142 7.7517L29.2939 2.65711L23.8919 3.40373L19.5 0.0219727L15.152 3.35981L9.75 2.61319L7.72973 7.70778L2.63514 9.72806L3.38176 15.1301L0 19.522L3.33784 23.8699L2.59122 29.272L7.68581 31.2922L9.70608 36.3868L15.1081 35.6402L19.4561 38.9781L23.8041 35.6402L29.2061 36.3868L31.2264 31.2922L36.3209 29.2281L35.5743 23.826L39 19.522ZM17.9189 25.8463L11.4189 20.4882L12.8243 18.7754L17.6554 22.7281L25.9122 13.1976L27.5811 14.647L17.9189 25.8463Z" fill="#FF8541"/>
</svg>
