<svg width="47" height="46" viewBox="0 0 47 46" fill="none" xmlns="http://www.w3.org/2000/svg">
<g clip-path="url(#clip0)">
<path d="M45.5848 27.9993C44.9188 27.9993 44.3791 28.539 44.3791 29.2049V39.9103C44.3768 41.9067 42.759 43.5249 40.7622 43.5273H6.93259C4.93572 43.5249 3.31797 41.9067 3.31561 39.9103V8.49208C3.31797 6.49521 4.93572 4.87746 6.93259 4.87511H17.6375C18.3035 4.87511 18.8432 4.33539 18.8432 3.66945C18.8432 3.00351 18.3035 2.46379 17.6375 2.46379H6.93259C3.60478 2.46756 0.908065 5.16428 0.904297 8.49208V39.9103C0.908065 43.2381 3.60478 45.9349 6.93259 45.9386H40.7622C44.09 45.9349 46.7867 43.2381 46.7904 39.9103V29.2054C46.7904 28.5395 46.2507 27.9993 45.5848 27.9993Z" fill="#FF8541"/>
<path d="M19.7568 21.6549L37.3609 4.05043L43.0383 9.72786L25.4343 27.3324L19.7568 21.6549Z" fill="#FF8541"/>
<path d="M16.8848 30.2048L23.1589 28.4669L18.6226 23.9306L16.8848 30.2048Z" fill="#FF8541"/>
<path d="M44.6077 1.06643C43.4299 -0.108611 41.5229 -0.108611 40.3451 1.06643L39.0664 2.34509L44.7438 8.02252L46.0225 6.74386C47.198 5.56599 47.198 3.65907 46.0225 2.4812L44.6077 1.06643Z" fill="#FF8541"/>
</g>
<defs>
<clipPath id="clip0">
<rect width="46" height="46" fill="white" transform="translate(0.904297)"/>
</clipPath>
</defs>
</svg>
