<svg width="39" height="39" viewBox="0 0 39 39" fill="none" xmlns="http://www.w3.org/2000/svg">
<g clip-path="url(#clip0)">
<path d="M37.8813 23.7385C37.3167 23.7385 36.8591 24.1961 36.8591 24.7607V33.837C36.8571 35.5296 35.4855 36.9016 33.7925 36.9036H5.11095C3.41794 36.9016 2.04637 35.5296 2.04438 33.837V7.19981C2.04637 5.50681 3.41794 4.13524 5.11095 4.13324H14.1869C14.7515 4.13324 15.2091 3.67566 15.2091 3.11106C15.2091 2.54646 14.7515 2.08887 14.1869 2.08887H5.11095C2.28954 2.09206 0.00319434 4.37841 0 7.19981V33.837C0.00319434 36.6584 2.28954 38.9448 5.11095 38.948H33.7925C36.6139 38.9448 38.9003 36.6584 38.9035 33.837V24.7611C38.9035 24.1965 38.4459 23.7385 37.8813 23.7385Z" fill="#FF8541"/>
<path d="M15.9837 18.3596L30.9089 3.43408L35.7223 8.24755L20.7972 23.1731L15.9837 18.3596Z" fill="#FF8541"/>
<path d="M13.5484 25.6084L18.8678 24.135L15.0218 20.2891L13.5484 25.6084Z" fill="#FF8541"/>
<path d="M37.0532 0.904159C36.0545 -0.0920763 34.4378 -0.0920763 33.4392 0.904159L32.3551 1.98824L37.1686 6.80171L38.2527 5.71763C39.2493 4.719 39.2493 3.10226 38.2527 2.10363L37.0532 0.904159Z" fill="#FF8541"/>
</g>
<defs>
<clipPath id="clip0">
<rect width="39" height="39" fill="white"/>
</clipPath>
</defs>
</svg>
