<svg width="47" height="46" viewBox="0 0 47 46" fill="none" xmlns="http://www.w3.org/2000/svg">
<g clip-path="url(#clip0)">
<path d="M25.5775 38.3563V35.194H0.198242V38.3691C0.198242 41.2445 2.52179 43.6207 5.39756 43.6207H28.1354C27.9174 43.4224 27.7071 43.2486 27.5084 43.0495C26.2665 41.8037 25.5717 40.1153 25.5775 38.3563Z" fill="#FF8541"/>
<path d="M18.1675 19.1855L21.8503 21.7139L25.5474 19.1855C26.5586 18.4958 27.3617 16.9394 27.3617 15.7157V10.4908L21.8596 7.76956L16.3574 10.4839V15.7157C16.3574 16.939 17.1559 18.4958 18.1675 19.1855ZM18.9966 14.2472C19.2688 13.9777 19.7084 13.9796 19.9779 14.2523L21.0839 15.3691L23.7459 12.7075C24.017 12.4364 24.4565 12.4364 24.7276 12.7079C24.9987 12.979 24.9983 13.4185 24.7272 13.6896L21.5722 16.8461C21.4421 16.9766 21.2659 17.051 21.0816 17.0517H21.08C20.8949 17.0506 20.7179 16.9758 20.5886 16.8434L18.9915 15.2301C18.722 14.9571 18.7243 14.5175 18.9966 14.2472Z" fill="#FF8541"/>
<path d="M42.5195 2.37932H42.4974C40.4585 2.37932 38.7627 4.08286 38.7627 6.12294V12.4914H46.198V6.11054C46.2073 4.0666 44.5634 2.39907 42.5195 2.37932Z" fill="#FF8541"/>
<path d="M10.8526 2.37932C8.92442 2.37932 7.35525 3.92757 7.35525 5.82668L7.15039 33.806H26.2716C26.6608 33.8215 26.9679 34.1426 26.9656 34.5325V38.3563C26.9586 41.2472 29.2891 43.5998 32.1796 43.6207H32.197C35.0771 43.5998 37.3948 41.2484 37.3751 38.3683V6.1241C37.3751 4.6653 38.0315 3.3707 39.0178 2.37932L10.8526 2.37932ZM14.9699 10.0509C14.961 9.78988 15.1039 9.54707 15.3366 9.42779L21.5513 6.37349C21.7423 6.279 21.9661 6.279 22.157 6.37349L28.3829 9.43631C28.6157 9.55559 28.7586 9.79801 28.7501 10.0594V15.7157C28.7501 17.3991 27.7227 19.3838 26.3313 20.3322L22.2542 23.1278C22.14 23.2064 22.0044 23.2486 21.8658 23.2486C21.7275 23.2486 21.5928 23.2068 21.4793 23.1278L17.3903 20.3322C15.9996 19.3834 14.9699 17.3987 14.9699 15.7157V10.0509ZM31.7242 30.6336H12.6897C12.3063 30.6336 11.9958 30.323 11.9958 29.9397C11.9958 29.5563 12.3063 29.2457 12.6897 29.2457H31.7242C32.1076 29.2457 32.4182 29.5563 32.4182 29.9397C32.4182 30.323 32.1076 30.6336 31.7242 30.6336ZM31.7242 26.9655H12.6897C12.3063 26.9655 11.9958 26.6549 11.9958 26.2716C11.9958 25.8882 12.3063 25.5776 12.6897 25.5776H31.7242C32.1076 25.5776 32.4182 25.8882 32.4182 26.2716C32.4182 26.6549 32.1076 26.9655 31.7242 26.9655Z" fill="#FF8541"/>
</g>
<defs>
<clipPath id="clip0">
<rect width="46" height="46" fill="white" transform="translate(0.198242)"/>
</clipPath>
</defs>
</svg>
