<svg width="23" height="13" viewBox="0 0 23 13" fill="none" xmlns="http://www.w3.org/2000/svg">
<path d="M22.795 11.5941C22.7332 11.4918 22.3508 10.6709 20.5107 8.98366C18.5843 7.21687 18.843 7.50376 21.1633 4.4488C22.5765 2.58827 23.1415 1.45207 22.9647 0.96634C22.7965 0.503338 21.7571 0.625479 21.7571 0.625479L18.3011 0.645363C18.3011 0.645363 18.0452 0.611277 17.854 0.723476C17.6685 0.834256 17.5492 1.0899 17.5492 1.0899C17.5492 1.0899 17.0015 2.53004 16.2712 3.75429C14.7315 6.33773 14.1147 6.47407 13.8632 6.31359C13.2781 5.94006 13.4247 4.81096 13.4247 4.00994C13.4247 1.50604 13.8085 0.46215 12.6757 0.192302C12.2991 0.102827 12.023 0.043176 11.0613 0.0332343C9.8278 0.020452 8.78266 0.037495 8.19181 0.322966C7.7979 0.513279 7.49457 0.937935 7.68002 0.962079C7.9086 0.991904 8.42614 1.09984 8.70072 1.46911C9.05581 1.94489 9.04287 3.01576 9.04287 3.01576C9.04287 3.01576 9.24701 5.96278 8.56702 6.32921C8.0998 6.58059 7.46006 6.06788 6.08715 3.72305C5.38416 2.52293 4.85225 1.195 4.85225 1.195C4.85225 1.195 4.75017 0.947876 4.5676 0.815793C4.34621 0.655305 4.03568 0.604176 4.03568 0.604176L0.749314 0.624059C0.749314 0.624059 0.256215 0.638262 0.0750765 0.849879C-0.0859355 1.03877 0.0621381 1.42792 0.0621381 1.42792C0.0621381 1.42792 2.63546 7.37451 5.54805 10.3727C8.22056 13.1209 11.2539 12.9405 11.2539 12.9405H12.6283C12.6283 12.9405 13.0437 12.895 13.2551 12.6692C13.4506 12.4619 13.4434 12.0727 13.4434 12.0727C13.4434 12.0727 13.4161 10.2505 14.2729 9.9821C15.1168 9.71793 16.2007 11.7432 17.3494 12.5229C18.2177 13.1123 18.8775 12.9831 18.8775 12.9831L21.9497 12.9405C21.9497 12.9405 23.557 12.8425 22.795 11.5941Z" fill="white"/>
</svg>
