<svg width="29" height="26" viewBox="0 0 29 26" fill="none" xmlns="http://www.w3.org/2000/svg">
<path d="M14.0836 0H14.0766C6.35733 0 0.0800781 5.8305 0.0800781 13C0.0800781 15.8438 1.06708 18.4795 2.74533 20.6196L1.00058 25.4491L6.38183 23.8518C8.59558 25.2135 11.2363 26 14.0836 26C21.8028 26 28.0801 20.1679 28.0801 13C28.0801 5.83213 21.8028 0 14.0836 0ZM22.2298 18.3576C21.8921 19.2432 20.5516 19.9777 19.4823 20.1922C18.7508 20.3369 17.7953 20.4523 14.5788 19.214C10.4646 17.6313 7.81508 13.7491 7.60858 13.4972C7.41083 13.2454 5.94608 11.4416 5.94608 9.57613C5.94608 7.71063 6.96633 6.80225 7.37758 6.41225C7.71533 6.09212 8.27358 5.94587 8.80908 5.94587C8.98233 5.94587 9.13808 5.954 9.27808 5.9605C9.68933 5.97675 9.89583 5.9995 10.1671 6.60238C10.5048 7.358 11.3273 9.2235 11.4253 9.41525C11.5251 9.607 11.6248 9.867 11.4848 10.1189C11.3536 10.3789 11.2381 10.4942 11.0316 10.7153C10.8251 10.9362 10.6291 11.1053 10.4226 11.3425C10.2336 11.5489 10.0201 11.7699 10.2581 12.1518C10.4961 12.5255 11.3186 13.7719 12.5296 14.7729C14.0923 16.0647 15.3593 16.4775 15.8126 16.653C16.1503 16.783 16.5528 16.7521 16.7996 16.5084C17.1128 16.1947 17.4996 15.6748 17.8933 15.1629C18.1733 14.7956 18.5268 14.7501 18.8978 14.8801C19.2758 15.002 21.2761 15.9201 21.6873 16.1102C22.0986 16.302 22.3698 16.393 22.4696 16.5539C22.5676 16.7148 22.5676 17.4704 22.2298 18.3576Z" fill="#E3E3E3"/>
</svg>
