<svg width="21" height="13" viewBox="0 0 21 13" fill="none" xmlns="http://www.w3.org/2000/svg">
<path d="M19.9278 2.03601C19.701 1.25495 19.036 0.639253 18.1927 0.428937C16.6521 0.0385742 10.4895 0.0385742 10.4895 0.0385742C10.4895 0.0385742 4.32719 0.0385742 2.78658 0.414137C1.9595 0.62423 1.27829 1.25506 1.05143 2.03601C0.645996 3.4626 0.645996 6.42114 0.645996 6.42114C0.645996 6.42114 0.645996 9.3946 1.05143 10.8063C1.27853 11.5872 1.94327 12.2029 2.7867 12.4132C4.34341 12.8037 10.4897 12.8037 10.4897 12.8037C10.4897 12.8037 16.6521 12.8037 18.1927 12.4282C19.0361 12.2179 19.701 11.6022 19.9281 10.8213C20.3334 9.3946 20.3334 6.43617 20.3334 6.43617C20.3334 6.43617 20.3496 3.4626 19.9278 2.03601ZM8.52748 9.15435V3.68794L13.6519 6.42114L8.52748 9.15435Z" fill="white"/>
</svg>
