<svg width="36" height="25" viewBox="0 0 36 25" fill="none" xmlns="http://www.w3.org/2000/svg">
<path d="M34.7818 22.2272C34.6878 22.0312 34.1058 20.4578 31.3056 17.2239C28.3742 13.8376 28.7679 14.3875 32.2988 8.53221C34.4493 4.96624 35.3091 2.78854 35.04 1.85758C34.784 0.970172 33.2023 1.20427 33.2023 1.20427L27.9432 1.24238C27.9432 1.24238 27.5538 1.17705 27.2628 1.3921C26.9806 1.60442 26.799 2.0944 26.799 2.0944C26.799 2.0944 25.9655 4.85463 24.8542 7.20109C22.5112 12.1526 21.5727 12.4139 21.1899 12.1063C20.2995 11.3904 20.5226 9.22635 20.5226 7.69107C20.5226 2.89199 21.1067 0.89123 19.3829 0.374028C18.8097 0.202535 18.3897 0.0882062 16.9261 0.0691514C15.0491 0.0446524 13.4587 0.0773177 12.5595 0.624463C11.9601 0.989226 11.4985 1.80314 11.7807 1.84942C12.1286 1.90658 12.9161 2.11346 13.334 2.82121C13.8743 3.73312 13.8546 5.78559 13.8546 5.78559C13.8546 5.78559 14.1653 11.434 13.1305 12.1363C12.4195 12.6181 11.446 11.6354 9.3568 7.14121C8.28704 4.84102 7.4776 2.29584 7.4776 2.29584C7.4776 2.29584 7.32228 1.82219 7.04444 1.56904C6.70754 1.26144 6.23501 1.16344 6.23501 1.16344L1.23401 1.20155C1.23401 1.20155 0.483642 1.22877 0.207997 1.63437C-0.0370214 1.99641 0.188308 2.74227 0.188308 2.74227C0.188308 2.74227 4.10423 14.1398 8.53643 19.8861C12.6033 25.1534 17.2193 24.8077 17.2193 24.8077H19.3107C19.3107 24.8077 19.9429 24.7206 20.2645 24.2878C20.562 23.8904 20.5511 23.1445 20.5511 23.1445C20.5511 23.1445 20.5095 19.652 21.8134 19.1376C23.0975 18.6313 24.747 22.513 26.495 24.0074C27.8163 25.1371 28.8204 24.8894 28.8204 24.8894L33.4955 24.8077C33.4955 24.8077 35.9413 24.6199 34.7818 22.2272Z" fill="white"/>
</svg>
