<svg width="16" height="13" viewBox="0 0 16 13" fill="none" xmlns="http://www.w3.org/2000/svg">
<path d="M11.6689 0.0302734H4.33105C1.94287 0.0302734 0 1.60458 0 3.53973V9.48572C0 11.4208 1.94287 12.9951 4.33105 12.9951H11.669C14.0571 12.9951 16 11.4208 16 9.48572V3.53973C16 1.60458 14.0571 0.0302734 11.6689 0.0302734V0.0302734ZM7.99998 10.0576C5.58764 10.0576 3.62512 8.4674 3.62512 6.51267C3.62512 4.55794 5.58764 2.96771 7.99998 2.96771C10.4123 2.96771 12.3749 4.55794 12.3749 6.51267C12.3749 8.4674 10.4123 10.0576 7.99998 10.0576ZM12.4795 3.80373C11.7666 3.80373 11.1867 3.33389 11.1867 2.75623C11.1867 2.17858 11.7666 1.70864 12.4795 1.70864C13.1924 1.70864 13.7723 2.17858 13.7723 2.75623C13.7723 3.33389 13.1924 3.80373 12.4795 3.80373Z" fill="white"/>
</svg>
