<svg width="18" height="15" viewBox="0 0 18 15" fill="none" xmlns="http://www.w3.org/2000/svg">
<path d="M9.00225 0.0302734H8.99775C4.03538 0.0302734 0 3.17992 0 7.05289C0 8.58908 0.6345 10.0129 1.71337 11.169L0.59175 13.7779L4.05113 12.915C5.47425 13.6506 7.17188 14.0755 9.00225 14.0755C13.9646 14.0755 18 10.925 18 7.05289C18 3.18079 13.9646 0.0302734 9.00225 0.0302734ZM14.2391 9.94708C14.022 10.4255 13.1602 10.8223 12.4729 10.9381C12.0026 11.0163 11.3884 11.0786 9.32063 10.4097C6.67575 9.55469 4.9725 7.45756 4.83975 7.3215C4.71263 7.18544 3.771 6.21105 3.771 5.20331C3.771 4.19556 4.42688 3.70486 4.69125 3.49418C4.90838 3.32125 5.26725 3.24224 5.6115 3.24224C5.72288 3.24224 5.823 3.24663 5.913 3.25014C6.17737 3.25892 6.31012 3.27121 6.4845 3.59688C6.70162 4.00507 7.23037 5.01282 7.29338 5.1164C7.3575 5.21998 7.42163 5.36044 7.33162 5.4965C7.24725 5.63695 7.173 5.69928 7.04025 5.81866C6.9075 5.93805 6.7815 6.02934 6.64875 6.1575C6.52725 6.26899 6.39 6.38837 6.543 6.59466C6.696 6.79656 7.22475 7.46985 8.00325 8.01059C9.00787 8.70847 9.82237 8.93144 10.1137 9.02624C10.3309 9.09647 10.5896 9.07979 10.7483 8.94811C10.9496 8.77869 11.1982 8.49779 11.4514 8.22127C11.6314 8.02289 11.8586 7.99831 12.0971 8.06853C12.3401 8.13437 13.626 8.63034 13.8904 8.73305C14.1547 8.83663 14.3291 8.88579 14.3932 8.97269C14.4562 9.0596 14.4562 9.46779 14.2391 9.94708Z" fill="#E3E3E3"/>
</svg>
