<svg width="32" height="25" viewBox="0 0 32 25" fill="none" xmlns="http://www.w3.org/2000/svg">
<path d="M30.4016 3.85863C30.0451 2.38158 29.0001 1.21723 27.6749 0.81951C25.2539 0.0812988 15.5699 0.0812988 15.5699 0.0812988C15.5699 0.0812988 5.88629 0.0812988 3.46533 0.791522C2.16564 1.18883 1.09517 2.38179 0.738666 3.85863C0.101562 6.55643 0.101562 12.1513 0.101562 12.1513C0.101562 12.1513 0.101562 17.7744 0.738666 20.444C1.09555 21.9208 2.14014 23.0852 3.46552 23.4829C5.91178 24.2213 15.5703 24.2213 15.5703 24.2213C15.5703 24.2213 25.2539 24.2213 27.6749 23.5111C29.0003 23.1136 30.0451 21.9492 30.4019 20.4724C31.0389 17.7744 31.0389 12.1797 31.0389 12.1797C31.0389 12.1797 31.0644 6.55643 30.4016 3.85863ZM12.4868 17.32V6.98256L20.5395 12.1513L12.4868 17.32Z" fill="white"/>
</svg>
