<svg width="26" height="25" viewBox="0 0 26 25" fill="none" xmlns="http://www.w3.org/2000/svg">
<path d="M18.3264 0.0634766H6.86101C3.12948 0.0634766 0.09375 3.08086 0.09375 6.78985V18.1862C0.09375 21.895 3.12948 24.9124 6.86101 24.9124H18.3266C22.058 24.9124 25.0937 21.895 25.0937 18.1862V6.78985C25.0937 3.08086 22.058 0.0634766 18.3264 0.0634766V0.0634766ZM12.5937 19.2824C8.82443 19.2824 5.75799 16.2344 5.75799 12.4879C5.75799 8.7414 8.82443 5.69349 12.5937 5.69349C16.363 5.69349 19.4295 8.7414 19.4295 12.4879C19.4295 16.2344 16.363 19.2824 12.5937 19.2824ZM19.5929 7.29584C18.479 7.29584 17.573 6.39533 17.573 5.28817C17.573 4.18101 18.479 3.2803 19.5929 3.2803C20.7068 3.2803 21.613 4.18101 21.613 5.28817C21.613 6.39533 20.7068 7.29584 19.5929 7.29584Z" fill="white"/>
</svg>
