<svg width="131" height="128" viewBox="0 0 131 128" fill="none" xmlns="http://www.w3.org/2000/svg">
<path fill-rule="evenodd" clip-rule="evenodd" d="M52.4412 59.4415H76.9582V68.4812H52.4412V80.5909H78.8996L94.948 65.0366V63.1925L78.5836 47.3318H52.4412V59.4415ZM0 30.958H130.109L103.446 56.8004H101.543L82.4468 38.2921H0V30.958ZM130.109 43.7423V84.487L110.041 65.0368V63.1927L130.109 43.7423ZM130.109 97.271H26.2207V47.3318H43.1144V89.6308H48.6577H52.4412H82.763L101.543 71.4286H103.446L130.109 97.271ZM16.8937 97.271H0V47.3318H16.8937V97.271Z" fill="white"/>
<path fill-rule="evenodd" clip-rule="evenodd" d="M21.0731 1.2869H5.56608H0.681641V24.4604H5.56608V5.78915H16.1887V24.4604H21.0731V1.2869ZM46.239 1.2869H36.1969V24.4604H41.0813V16.9786H46.239C51.3624 16.9786 54.7437 13.9329 54.7437 9.06649C54.7437 4.20007 51.3624 1.2869 46.239 1.2869ZM46.0339 12.4763H41.0813V5.78915H46.0339C48.5615 5.78915 49.7913 7.08028 49.7913 9.1328C49.7913 11.1521 48.5615 12.4763 46.0339 12.4763ZM79.8072 0.889648C72.7711 0.889648 67.3743 6.05403 67.3743 12.8736C67.3743 19.6932 72.7711 24.8576 79.8072 24.8576C86.8435 24.8576 92.2743 19.6932 92.2743 12.8736C92.2743 6.05403 86.8435 0.889648 79.8072 0.889648ZM79.8072 5.39192C84.1109 5.39192 87.3216 8.53688 87.3216 12.8736C87.3216 17.2104 84.1109 20.3553 79.8072 20.3553C75.5036 20.3553 72.2928 17.2104 72.2928 12.8736C72.2928 8.53688 75.5036 5.39192 79.8072 5.39192ZM123.691 1.2869L117.577 7.29263L111.429 1.2869H105.827V24.4604H110.712V7.84168L117.338 14.7081H117.782L124.442 7.84168V24.4604H129.327V1.2869H123.691ZM13.5246 127.349C19.2287 127.349 23.6689 123.939 25.0693 119.006H19.8434C18.7162 121.39 16.4278 122.846 13.4903 122.846C9.08419 122.846 6.0785 119.701 6.0785 115.365C6.0785 111.028 9.08419 107.883 13.4903 107.883C16.4278 107.883 18.7162 109.339 19.8434 111.723H25.0693C23.6689 106.791 19.2287 103.381 13.5246 103.381C6.38573 103.381 1.15997 108.545 1.15997 115.365C1.15997 122.184 6.38573 127.349 13.5246 127.349ZM89.8492 103.381C83.5984 103.381 78.6116 107.452 77.5871 113.147H74.2055V103.778H69.3211V126.951H74.2055V117.649H77.5871C78.646 123.31 83.6328 127.349 89.8492 127.349C96.8854 127.349 102.282 122.184 102.282 115.365C102.282 108.545 96.8854 103.381 89.8492 103.381ZM89.8492 122.846C85.5455 122.846 82.3348 119.701 82.3348 115.365C82.3348 111.028 85.5455 107.883 89.8492 107.883C94.1528 107.883 97.3635 111.028 97.3294 115.365C97.3635 119.701 94.1528 122.846 89.8492 122.846ZM127.346 114.802C129.122 113.908 130.249 112.153 130.249 110.134C130.249 106.195 126.731 103.381 121.505 103.381C116.484 103.381 112.761 105.83 112.248 110.73H117.167C117.645 108.578 119.011 107.883 121.334 107.883C124.203 107.883 125.296 109.108 125.296 110.763C125.296 112.484 123.896 113.08 121.505 113.08H118.67V117.219H122.12C125.125 117.219 126.048 118.212 126.048 119.801C126.048 121.688 124.818 122.846 121.744 122.846C119.011 122.846 117.372 122.019 116.962 119.734H112.009C112.419 124.866 116.552 127.349 121.846 127.349C127.448 127.349 131 124.7 131 120.264C131 117.649 129.6 115.696 127.346 114.802ZM46.5462 103.381C39.5102 103.381 34.1133 108.545 34.1133 115.365C34.1133 122.184 39.5102 127.349 46.5462 127.349C53.5825 127.349 59.0133 122.184 59.0133 115.365C59.0133 108.545 53.5825 103.381 46.5462 103.381ZM46.5462 107.883C50.8499 107.883 54.0606 111.028 54.0606 115.365C54.0606 119.701 50.8499 122.846 46.5462 122.846C42.2426 122.846 39.0319 119.701 39.0319 115.365C39.0319 111.028 42.2426 107.883 46.5462 107.883Z" fill="white"/>
</svg>
