<svg width="106" height="97" viewBox="0 0 106 97" fill="none" xmlns="http://www.w3.org/2000/svg">
<path fill-rule="evenodd" clip-rule="evenodd" d="M42.1719 44.8529H61.8879V51.7264H42.1719V60.9343H63.4491L76.3548 49.1072V47.705L63.195 35.645H42.1719V44.8529ZM0 23.1948H104.63L83.1885 42.8447H81.6583L66.3017 28.7715H0V23.1948ZM104.63 32.9157V63.8968L88.4921 49.1073V47.7051L104.63 32.9157ZM104.63 73.6173H21.086V35.645H34.6716V67.8079H39.1293H42.1719H66.556L81.6585 53.9675H83.1883L104.63 73.6173ZM13.5855 73.6173H0V35.645H13.5855V73.6173Z" fill="white"/>
<path fill-rule="evenodd" clip-rule="evenodd" d="M16.9463 0.633602H4.47593H0.547985V18.2541H4.47593V4.05699H13.0184V18.2541H16.9463V0.633602ZM37.1841 0.633602H29.1085V18.2541H33.0364V12.5651H37.1841C41.3042 12.5651 44.0234 10.2493 44.0234 6.54898C44.0234 2.84869 41.3042 0.633602 37.1841 0.633602ZM37.0192 9.14171H33.0364V4.05699H37.0192C39.0518 4.05699 40.0407 5.03872 40.0407 6.5994C40.0407 8.13481 39.0518 9.14171 37.0192 9.14171ZM64.1788 0.331543C58.5206 0.331543 54.1806 4.25839 54.1806 9.44377C54.1806 14.6292 58.5206 18.5561 64.1788 18.5561C69.8372 18.5561 74.2045 14.6292 74.2045 9.44377C74.2045 4.25839 69.8372 0.331543 64.1788 0.331543ZM64.1788 3.75494C67.6398 3.75494 70.2217 6.14628 70.2217 9.44377C70.2217 12.7413 67.6398 15.1327 64.1788 15.1327C60.7179 15.1327 58.1359 12.7413 58.1359 9.44377C58.1359 6.14628 60.7179 3.75494 64.1788 3.75494ZM99.469 0.633602L94.5523 5.20019L89.6081 0.633602H85.1034V18.2541H89.0313V5.61767L94.36 10.8387H94.717L100.073 5.61767V18.2541H104.001V0.633602H99.469ZM10.876 96.4873C15.4631 96.4873 19.0338 93.8946 20.16 90.144H15.9574C15.051 91.9564 13.2107 93.0639 10.8484 93.0639C7.30511 93.0639 4.888 90.6726 4.888 87.375C4.888 84.0775 7.30511 81.6861 10.8484 81.6861C13.2107 81.6861 15.051 82.7937 15.9574 84.6061H20.16C19.0338 80.8555 15.4631 78.2627 10.876 78.2627C5.13507 78.2627 0.932647 82.1896 0.932647 87.375C0.932647 92.5605 5.13507 96.4873 10.876 96.4873ZM72.2543 78.2627C67.2276 78.2627 63.2174 81.3588 62.3935 85.6885H59.6741V78.5648H55.7462V96.1853H59.6741V89.1119H62.3935C63.245 93.4163 67.2552 96.4873 72.2543 96.4873C77.9127 96.4873 82.2525 92.5605 82.2525 87.375C82.2525 82.1896 77.9127 78.2627 72.2543 78.2627ZM72.2543 93.0639C68.7934 93.0639 66.2114 90.6726 66.2114 87.375C66.2114 84.0775 68.7934 81.6861 72.2543 81.6861C75.7152 81.6861 78.2972 84.0775 78.2697 87.375C78.2972 90.6726 75.7152 93.0639 72.2543 93.0639ZM102.408 86.9471C103.836 86.2674 104.743 84.9333 104.743 83.3978C104.743 80.4024 101.914 78.2627 97.7109 78.2627C93.6732 78.2627 90.6792 80.1255 90.2672 83.8509H94.2225C94.607 82.2148 95.7058 81.6861 97.5737 81.6861C99.8809 81.6861 100.76 82.6175 100.76 83.8761C100.76 85.185 99.6337 85.6382 97.7109 85.6382H95.4311V88.7847H98.2053C100.623 88.7847 101.364 89.5399 101.364 90.748C101.364 92.1829 100.375 93.0639 97.9032 93.0639C95.7058 93.0639 94.3874 92.4347 94.0578 90.6977H90.075C90.4046 94.5994 93.7281 96.4873 97.9856 96.4873C102.49 96.4873 105.347 94.4735 105.347 91.1006C105.347 89.1119 104.221 87.6267 102.408 86.9471ZM37.4312 78.2627C31.7729 78.2627 27.4329 82.1896 27.4329 87.375C27.4329 92.5605 31.7729 96.4873 37.4312 96.4873C43.0895 96.4873 47.4568 92.5605 47.4568 87.375C47.4568 82.1896 43.0895 78.2627 37.4312 78.2627ZM37.4312 81.6861C40.8921 81.6861 43.474 84.0775 43.474 87.375C43.474 90.6726 40.8921 93.0639 37.4312 93.0639C33.9703 93.0639 31.3883 90.6726 31.3883 87.375C31.3883 84.0775 33.9703 81.6861 37.4312 81.6861Z" fill="white"/>
</svg>
