<svg width="21" height="30" viewBox="0 0 21 30" fill="none" xmlns="http://www.w3.org/2000/svg">
<path d="M10.6289 0C5.08811 0 0.580078 4.48611 0.580078 10C0.580078 11.6553 0.995947 13.2965 1.78653 14.7522L10.0794 29.6777C10.1898 29.8767 10.4002 30 10.6289 30C10.8577 30 11.0681 29.8767 11.1785 29.6777L19.4744 14.7473C20.2619 13.2965 20.6778 11.6552 20.6778 9.99996C20.6778 4.48611 16.1698 0 10.6289 0ZM10.6289 15C7.85853 15 5.60454 12.757 5.60454 10C5.60454 7.24307 7.85853 5.00004 10.6289 5.00004C13.3994 5.00004 15.6534 7.24307 15.6534 10C15.6534 12.757 13.3994 15 10.6289 15Z" fill="black"/>
</svg>
