<svg width="17" height="24" viewBox="0 0 17 24" fill="none" xmlns="http://www.w3.org/2000/svg">
<path d="M8.0814 0.423828C3.69489 0.423828 0.126038 3.90531 0.126038 8.18441C0.126038 9.46899 0.455267 10.7427 1.08114 11.8724L7.64635 23.4554C7.73375 23.6098 7.9003 23.7055 8.0814 23.7055C8.26249 23.7055 8.42904 23.6098 8.51644 23.4554L15.0841 11.8686C15.7075 10.7427 16.0368 9.46895 16.0368 8.18436C16.0368 3.9053 12.4679 0.423828 8.0814 0.423828ZM8.0814 12.0647C5.88814 12.0647 4.10374 10.324 4.10374 8.18441C4.10374 6.04486 5.88814 4.30414 8.0814 4.30414C10.2746 4.30414 12.0591 6.04486 12.0591 8.18441C12.0591 10.324 10.2746 12.0647 8.0814 12.0647Z" fill="black"/>
</svg>
