<svg width="31" height="30" viewBox="0 0 31 30" fill="none" xmlns="http://www.w3.org/2000/svg">
<g clip-path="url(#clip0)">
<path d="M20.5391 15.1537L30.7022 21.5475V8.48999L20.5391 15.1537Z" fill="black"/>
<path d="M0.555664 8.48999V21.5475L10.7188 15.1537L0.555664 8.48999Z" fill="black"/>
<path d="M28.8182 4.6875H2.43994C1.49974 4.6875 0.753617 5.385 0.612305 6.28313L15.6291 16.1287L30.6458 6.28313C30.5045 5.385 29.7584 4.6875 28.8182 4.6875Z" fill="black"/>
<path d="M18.8124 16.2863L16.1464 18.0338C15.9881 18.1369 15.8091 18.1875 15.6282 18.1875C15.4473 18.1875 15.2683 18.1369 15.1101 18.0338L12.444 16.2844L0.615234 23.73C0.760315 24.6207 1.50267 25.3125 2.4391 25.3125H28.8173C29.7538 25.3125 30.4961 24.6207 30.6412 23.73L18.8124 16.2863Z" fill="black"/>
</g>
<defs>
<clipPath id="clip0">
<rect width="30.1465" height="30" fill="white" transform="translate(0.555664)"/>
</clipPath>
</defs>
</svg>
