<svg width="25" height="25" viewBox="0 0 25 25" fill="none" xmlns="http://www.w3.org/2000/svg">
<g clip-path="url(#clip0)">
<path d="M15.9686 12.7276L24.0144 17.6895V7.55615L15.9686 12.7276Z" fill="black"/>
<path d="M0.148376 7.55615V17.6895L8.19421 12.7276L0.148376 7.55615Z" fill="black"/>
<path d="M22.5222 4.60522H1.63944C0.895122 4.60522 0.304438 5.14652 0.192566 5.84352L12.0808 13.4843L23.9691 5.84352C23.8572 5.14652 23.2665 4.60522 22.5222 4.60522Z" fill="black"/>
<path d="M14.6016 13.6067L12.491 14.9628C12.3657 15.0429 12.224 15.0822 12.0808 15.0822C11.9376 15.0822 11.7959 15.0429 11.6706 14.9628L9.55993 13.6052L0.195496 19.3834C0.310351 20.0746 0.898052 20.6116 1.63939 20.6116H22.5222C23.2635 20.6116 23.8512 20.0746 23.9661 19.3834L14.6016 13.6067Z" fill="black"/>
</g>
<defs>
<clipPath id="clip0">
<rect width="23.866" height="23.2817" fill="white" transform="translate(0.148376 0.967529)"/>
</clipPath>
</defs>
</svg>
