<svg width="31" height="30" viewBox="0 0 31 30" fill="none" xmlns="http://www.w3.org/2000/svg">
<path d="M27.962 19.1939C26.1159 19.1939 24.3076 18.9148 22.5938 18.3673C21.7574 18.0882 20.8076 18.3032 20.2578 18.8462L16.8602 21.3304C12.9616 19.3159 10.4666 16.9018 8.41414 13.1547L10.9108 9.94303C11.5393 9.33454 11.7645 8.4439 11.4952 7.60973C10.9249 5.93982 10.6351 4.18756 10.6351 2.40327C10.6351 1.14205 9.57507 0.115723 8.27237 0.115723H2.75924C1.45655 0.115723 0.396484 1.14205 0.396484 2.40327C0.396484 17.1183 12.7632 29.0913 27.962 29.0913C29.2647 29.0913 30.3247 28.065 30.3247 26.8038V21.4814C30.3247 20.2202 29.2647 19.1939 27.962 19.1939Z" fill="black"/>
</svg>
