<svg width="24" height="23" viewBox="0 0 24 23" fill="none" xmlns="http://www.w3.org/2000/svg">
<path d="M21.845 15.1956C20.3835 15.1956 18.952 14.979 17.5952 14.5541C16.9331 14.3375 16.1811 14.5044 15.7459 14.9258L13.0561 16.8537C9.96976 15.2903 7.99449 13.4168 6.36965 10.5089L8.34615 8.01644C8.8437 7.54422 9.02205 6.85303 8.80881 6.20566C8.35737 4.90972 8.12794 3.54987 8.12794 2.16516C8.12794 1.18638 7.28872 0.389893 6.25742 0.389893H1.89286C0.861559 0.389893 0.0223389 1.18638 0.0223389 2.16516C0.0223389 13.5848 9.81263 22.8766 21.845 22.8766C22.8763 22.8766 23.7156 22.0801 23.7156 21.1013V16.9709C23.7156 15.9921 22.8763 15.1956 21.845 15.1956Z" fill="black"/>
</svg>
