<svg width="26" height="31" viewBox="0 0 26 31" fill="none" xmlns="http://www.w3.org/2000/svg">
<path d="M23.8496 30.3002H12.5996C12.2681 30.3002 11.9501 30.1685 11.7157 29.9341C11.4813 29.6996 11.3496 29.3817 11.3496 29.0502V26.5502C11.3496 26.2186 11.4813 25.9007 11.7157 25.6663C11.9501 25.4319 12.2681 25.3002 12.5996 25.3002H23.8496C24.1811 25.3002 24.4991 25.4319 24.7335 25.6663C24.9679 25.9007 25.0996 26.2186 25.0996 26.5502V29.0502C25.0996 29.3817 24.9679 29.6996 24.7335 29.9341C24.4991 30.1685 24.1811 30.3002 23.8496 30.3002Z" fill="#FF8541"/>
<path d="M23.8496 0.300049H1.34961C1.01809 0.300049 0.700145 0.431744 0.465725 0.666164C0.231304 0.900585 0.0996094 1.21853 0.0996094 1.55005V4.05005C0.0996094 4.38157 0.231304 4.69951 0.465725 4.93393C0.700145 5.16835 1.01809 5.30005 1.34961 5.30005H23.8496C24.1811 5.30005 24.4991 5.16835 24.7335 4.93393C24.9679 4.69951 25.0996 4.38157 25.0996 4.05005V1.55005C25.0996 1.21853 24.9679 0.900585 24.7335 0.666164C24.4991 0.431744 24.1811 0.300049 23.8496 0.300049Z" fill="#FF8541"/>
<path d="M23.8496 7.80005H1.34961C1.01809 7.80005 0.700145 7.93174 0.465725 8.16616C0.231304 8.40058 0.0996094 8.71853 0.0996094 9.05005V21.55C0.0996094 21.8816 0.231304 22.1995 0.465725 22.4339C0.700145 22.6684 1.01809 22.8 1.34961 22.8H23.8496C24.1811 22.8 24.4991 22.6684 24.7335 22.4339C24.9679 22.1995 25.0996 21.8816 25.0996 21.55V9.05005C25.0996 8.71853 24.9679 8.40058 24.7335 8.16616C24.4991 7.93174 24.1811 7.80005 23.8496 7.80005Z" fill="#FF8541"/>
</svg>
