<svg width="31" height="31" viewBox="0 0 31 31" fill="none" xmlns="http://www.w3.org/2000/svg">
<g clip-path="url(#clip0)">
<path d="M23.1641 13.0175H30.6641L26.9141 8.01746L23.1641 13.0175ZM23.1641 18.0175H30.6641L26.9141 23.0175L23.1641 18.0175Z" fill="#FF8541"/>
<path d="M1.91406 0.517456H9.41406V30.5175H1.91406C1.58254 30.5175 1.2646 30.3858 1.03018 30.1513C0.795758 29.9169 0.664062 29.599 0.664062 29.2675V1.76746C0.664062 1.43594 0.795758 1.11799 1.03018 0.883572C1.2646 0.649151 1.58254 0.517456 1.91406 0.517456Z" fill="#FF8541"/>
<path d="M11.9141 0.517456H19.4141C19.7456 0.517456 20.0635 0.649151 20.2979 0.883572C20.5324 1.11799 20.6641 1.43594 20.6641 1.76746V29.2675C20.6641 29.599 20.5324 29.9169 20.2979 30.1513C20.0635 30.3858 19.7456 30.5175 19.4141 30.5175H11.9141V0.517456Z" fill="#FF8541"/>
</g>
<defs>
<clipPath id="clip0">
<rect width="30" height="30" fill="white" transform="translate(0.664062 0.517456)"/>
</clipPath>
</defs>
</svg>
