<svg width="29" height="29" viewBox="0 0 29 29" fill="none" xmlns="http://www.w3.org/2000/svg">
<path d="M28.2305 6.75647V1.75647C28.2305 1.42495 28.0988 1.10701 27.8644 0.872585C27.6299 0.638165 27.312 0.50647 26.9805 0.50647H1.98047C1.64895 0.50647 1.331 0.638165 1.09658 0.872585C0.862164 1.10701 0.730469 1.42495 0.730469 1.75647V6.75647H28.2305Z" fill="#FF8541"/>
<path d="M0.730469 9.25635V26.7563C0.730469 27.0879 0.862164 27.4058 1.09658 27.6402C1.331 27.8747 1.64895 28.0063 1.98047 28.0063H8.23047V9.25635H0.730469Z" fill="#FF8541"/>
<path d="M10.7305 28.0063H26.9805C27.312 28.0063 27.6299 27.8747 27.8643 27.6402C28.0988 27.4058 28.2305 27.0879 28.2305 26.7563V9.25635H10.7305V28.0063Z" fill="#FF8541"/>
</svg>
